<svg xmlns="http://www.w3.org/2000/svg" version="1.1" xmlns:xlink="http://www.w3.org/1999/xlink" xmlns:svgjs="http://svgjs.com/svgjs" width="512" height="512" x="0" y="0" viewBox="0 0 56 56" style="enable-background:new 0 0 512 512" xml:space="preserve" class=""><g><g xmlns="http://www.w3.org/2000/svg" id="_x32__1_"><g><g><g><path d="m37.5 35.9-1.1.6-.7-.4-2.6 1.5-6.1 5v5.3c-.2.2-.3.4-.3.7 0 .2 0 .4.1.6l-2.4 1.4-15.3-8.8 26.8-15.5c.4-.3.7-.7.7-1.2s-.3-1-.7-1.2l-6.9-4v-.5-.1c0-.1 0-.1 0-.2v-5.1l-6.1-5-2.6-1.5-.7.4-3.5-2c-1.3 1.1-2.9 2.1-4.4 3.3-2 1.7-3.9 3.7-6 5.4l5.5 3.2v1l2.6 1.5 9.3 3.2 3.4-2 .4.2c.2.1.6.1.9-.1.2-.1.3-.2.4-.4l6.8 3.8-26.8 15.6c-.4.3-.7.7-.7 1.2s.3 1 .7 1.2l15.4 8.9c.2.1.5.2.8.2s.5-.1.8-.2l2.4-1.4c.1.2.3.3.5.4.4.2.7.2 1 .1l1.1-.6 2.9 1.7 9.3-3.2 2.6-1.5v-1l3.5-2c-4.1-2.5-7.8-5.3-11-8.5z" fill="#b28afd" data-original="#b28afd" class=""></path></g></g><g><g><g><g><g><g><g><g><g><g><g><g><g enable-background="new"><g><path d="m20.7 8.4v4.4l-8.8 5.2v-4.4z" fill="#b0b8cf" data-original="#b0b8cf"></path></g><g><g><path d="m11.9 13.6v4.4l-7.9-4.5.1-4.4z" fill="#dedffb" data-original="#dedffb" class=""></path></g></g><g><g><path d="m20.7 8.4-8.8 5.2-7.9-4.5 1.7-1 .9-.5.7-.4.9-.5.7-.5.9-.5.7-.4.9-.5 1.5-.9z" fill="#f3f1fc" data-original="#f3f1fc"></path></g><g><g><path d="m20.4 12v-2.9l-2.6 1.5z" fill="#dedffb" data-original="#dedffb" class=""></path></g><g><path d="m12.2 16.8 8.2-4.8-2.6-1.4-5.6 3.2z" fill="#f3f1fc" data-original="#f3f1fc"></path></g></g></g></g></g><g><g enable-background="new"><g><g><path d="m12.2 15.7v-1.9l6.3-3.6 1.6 1z" fill="#b28afd" data-original="#b28afd" class=""></path></g></g><g><g><path d="m20.1 11.2.1.7-8 4.6v-.8z" fill="#986ff9" data-original="#986ff9"></path></g></g></g></g></g></g></g></g></g></g><g><path d="m15.9 6.7-3.9-2.2-.6.3 3.9 2.3z" fill="#b0b8cf" data-original="#b0b8cf"></path></g><g><path d="m15.3 7.1-.7.4-.8.4-.6.4-.7.4-.6.3-.7.4-.6.4-.7.4-.8.4-3.9-2.2.8-.5.7-.4.6-.3.8-.5.5-.3.8-.4.6-.4.7-.4.7-.4z" fill="#dedffb" data-original="#dedffb" class=""></path></g><g><path d="m15.9 6.7-.6.4-3.9-2.3.6-.3z" fill="#b0b8cf" data-original="#b0b8cf"></path></g><g><g><path d="m14.6 7.5-.8.4-3.8-2.3.7-.4z" fill="#febc1f" data-original="#febc1f" class=""></path></g></g><g><path d="m13.2 8.3-.7.4-3.9-2.3.8-.4z" fill="#febc1f" data-original="#febc1f" class=""></path></g><g><path d="m11.9 9-.7.4-3.9-2.2.8-.5z" fill="#febc1f" data-original="#febc1f" class=""></path></g><g><path d="m10.6 9.8-.7.4-3.9-2.3.7-.4z" fill="#febc1f" data-original="#febc1f" class=""></path></g><g><g><g><path d="m17.8 9.6-.1.2-3.6-2.1.2-.1z" fill="#f45170" data-original="#f45170"></path></g></g></g><g><g><g><path d="m16.4 10.4-.1.2-3.5-2.1.2-.1z" fill="#bf7d5a" data-original="#bf7d5a"></path></g></g></g><g><g><g><path d="m15.1 11.2-.1.2-3.6-2.1.2-.1z" fill="#72d561" data-original="#72d561"></path></g></g></g><g><g><g><path d="m13.7 12-.1.1-3.5-2 .2-.1z" fill="#b28afd" data-original="#b28afd" class=""></path></g></g></g></g><g enable-background="new"><g><g><path d="m11.1 12.6.1 6 2.6 1.5v-6z" fill="#7e5af2" data-original="#7e5af2" class=""></path></g></g></g><g><g enable-background="new"><g><g><g><path d="m29 13.9v5.9l-5.9 3.5v-5.9z" fill="#6d4eea" data-original="#6d4eea"></path></g></g></g><g><g><g><path d="m23.1 17.4v5.9l-9.4-3.2.1-5.9z" fill="#7e5af2" data-original="#7e5af2" class=""></path></g></g></g><g><g><g><path d="m22.9 8.9 6.1 5-5.9 3.5-9.3-3.2z" fill="#b28afd" data-original="#b28afd" class=""></path></g></g></g></g></g><g><g><path d="m11.1 12.6 2.7 1.5 9.1-5.2-2.6-1.5z" fill="#b28afd" data-original="#b28afd" class=""></path></g></g></g><g><g><g><g><g><g><g><g><g><g enable-background="new"><g><path d="m35.3 37.2v4.4l8.8 5.2v-4.5z" fill="#b0b8cf" data-original="#b0b8cf"></path></g><g><g><path d="m44.1 42.3v4.4l7.8-4.5v-4.4c-3 .7-5.5 2.3-7.8 4.5z" fill="#dedffb" data-original="#dedffb" class=""></path></g></g><g><g><path d="m35.3 37.2 8.8 5.1 7.9-4.5-1.7-.9-.9-.5-.7-.5-.9-.5-.7-.4-.9-.5-.7-.4-.9-.5-1.5-.9z" fill="#f3f1fc" data-original="#f3f1fc"></path></g><g><g><path d="m35.6 40.8v-3l2.6 1.5z" fill="#dedffb" data-original="#dedffb" class=""></path></g><g><path d="m43.8 45.5-8.2-4.7 2.6-1.5 5.6 3.3z" fill="#f3f1fc" data-original="#f3f1fc"></path></g></g></g></g></g><g><g enable-background="new"><g><g><path d="m43.8 44.5v-1.9l-6.3-3.7-1.6 1z" fill="#b28afd" data-original="#b28afd" class=""></path></g></g><g><g><path d="m35.9 39.9-.1.8 8 4.6v-.8z" fill="#986ff9" data-original="#986ff9"></path></g></g></g></g></g></g></g></g></g></g><g><path d="m40.1 35.5 3.9-2.3.6.4-3.9 2.2z" fill="#b0b8cf" data-original="#b0b8cf"></path></g><g><path d="m40.7 35.8.7.4.8.5.6.3.7.4.6.4.7.4.6.3.7.4.8.5 3.9-2.2-.8-.5-.7-.4-.6-.4-.8-.4-.5-.3-.8-.4-.6-.4-.7-.4-.7-.4z" fill="#dedffb" data-original="#dedffb" class=""></path></g><g><path d="m40.1 35.5.6.3 3.9-2.2-.6-.4z" fill="#b0b8cf" data-original="#b0b8cf"></path></g><g><g><path d="m41.4 36.2.8.5 3.8-2.3-.7-.4z" fill="#febc1f" data-original="#febc1f" class=""></path></g></g><g><path d="m42.8 37 .7.4 3.9-2.2-.8-.4z" fill="#febc1f" data-original="#febc1f" class=""></path></g><g><path d="m44.1 37.8.7.4 3.9-2.3-.8-.4z" fill="#febc1f" data-original="#febc1f" class=""></path></g><g><path d="m45.4 38.5.7.4 3.9-2.2-.7-.4z" fill="#febc1f" data-original="#febc1f" class=""></path></g><g><g><g><path d="m38.2 38.4.1.2 3.6-2.1-.2-.1z" fill="#f45170" data-original="#f45170"></path></g></g></g><g><g><g><path d="m39.6 39.2.1.2 3.5-2.1-.2-.1z" fill="#bf7d5a" data-original="#bf7d5a"></path></g></g></g><g><g><g><path d="m40.9 40 .1.1 3.6-2-.2-.2z" fill="#72d561" data-original="#72d561"></path></g></g></g><g><g><g><path d="m42.3 40.7.1.2 3.5-2-.2-.2z" fill="#b28afd" data-original="#b28afd" class=""></path></g></g></g></g><g enable-background="new"><g><g><path d="m44.9 41.4-.1 5.9-2.6 1.5v-5.9z" fill="#7e5af2" data-original="#7e5af2" class=""></path></g></g></g><g><g enable-background="new"><g><g><g><path d="m27 42.7v5.9l5.9 3.4v-5.9z" fill="#6d4eea" data-original="#6d4eea"></path></g></g></g><g><g><g><path d="m33.1 37.6-6.2 5 6 3.5c3.5 1.2 6.8 1.1 9.3-3.2z" fill="#b28afd" data-original="#b28afd" class=""></path></g></g></g></g></g><g><g><path d="m44.9 41.4-2.7 1.5-9.1-5.3 2.6-1.5z" fill="#b28afd" data-original="#b28afd" class=""></path></g></g></g></g><g><g><g><g><g enable-background="new"><g><g><path d="m28.6 18.4c-.2-.1-.6-.1-.9.1-.7.4-1.3 1.4-1.3 2.2 0 .4.1.7.4.8l-1.6-.9c-.2-.1-.4-.4-.4-.8 0-.8.6-1.8 1.3-2.2.4-.2.7-.2.9-.1z" fill="#b28afd" data-original="#b28afd" class=""></path></g></g><g><g><path d="m27.7 18.4c.7-.4 1.3-.1 1.3.7s-.6 1.8-1.3 2.2-1.3.1-1.3-.7c0-.7.6-1.7 1.3-2.2z" fill="#7e5af2" data-original="#7e5af2" class=""></path></g></g></g></g></g></g><g><g><g><g enable-background="new"><g><g><path d="m27.1 47.8c.2-.1.6-.1.9.1.7.4 1.3 1.4 1.3 2.2 0 .4-.1.7-.4.8l1.9-1.1c.2-.1.4-.4.4-.8 0-.8-.6-1.8-1.3-2.2-.4-.2-.7-.2-.9-.1z" fill="#b28afd" data-original="#b28afd" class=""></path></g></g><g><g><path d="m28 47.9c-.7-.4-1.3-.1-1.3.7s.6 1.8 1.3 2.2 1.3.1 1.3-.7-.6-1.8-1.3-2.2z" fill="#7e5af2" data-original="#7e5af2" class=""></path></g></g></g></g></g></g><g><g><g><path d="m35.9 23.8-7.6-4.4c-.1-.1-.2 0-.3 0-.3.2-.5.6-.5.9 0 .1 0 .2.1.3 0 0 .1.1.1.1l7.3 4.3-26.8 15.6c-.4.3-.7.7-.7 1.2s.3 1 .7 1.2l15.4 8.9c.2.1.5.2.8.2s.5-.1.8-.2l3-1.7c.1 0 .2-.2.2-.3 0-.3-.2-.8-.5-.9-.1-.1-.3-.1-.3 0l-3 1.7-15.5-8.9 26.8-15.5c.4-.3.7-.7.7-1.2 0-.6-.3-1-.7-1.3z" fill="#1d2943" data-original="#1d2943" class=""></path></g></g></g></g></g><g><path d="m20.7 15.8c-.7 0-1.3.3-1.7.7s-.7 1-.7 1.6c0-1.3-1.1-2.3-2.3-2.3.6 0 1.2-.3 1.7-.7.4-.4.7-1 .7-1.6 0 .6.3 1.2.7 1.6.4.5 1 .7 1.6.7z" fill="#ffffff" data-original="#ffffff"></path></g></g></g><g id="_x32_"><g><g><path d="m32.9 46.1v5.9l9.4-3.2-.1-5.9z" fill="#7e5af2" data-original="#7e5af2" class=""></path></g></g></g></g></g></svg>