<?xml version="1.0" encoding="UTF-8"?>
<svg viewBox="0 0 318.3 317.8" xmlns="http://www.w3.org/2000/svg">
<style type="text/css">.st0{fill-rule:evenodd;clip-rule:evenodd;fill:#F9F9F9;stroke:#BFBFBF;stroke-width:0.25;stroke-linecap:round;stroke-linejoin:round;}.st1{fill:#F9F9F9;stroke:#BFBFBF;stroke-width:0.25;stroke-linecap:round;stroke-linejoin:round;}</style>
<g>
<g>
<g>
<polygon class="st0" points="98.7 69.4 98.3 68.7 98.2 67.4 97 66 96.8 65.4 96.9 64.7 96.7 64.1 94.7 64.4 94.1 64 94.1 63.4 92.9 62.5 91.6 61.9 91 61.3 90.2 59.8 89.7 59.3 89.6 58.7 90.1 57.4 89.2 56.1 89.1 54.8 90 52.8 89.2 52.8 88.6 52.4 87.9 52.4 86.5 51.9 85.8 52 85.2 51.7 86.1 49.7 86 49 84.8 48.6 84.4 47.9 83.8 45.7 83.3 45.1 83.5 44.5 84.8 44.6 86.2 44.3 86.9 44 87.5 43.4 87.6 42.8 87.1 42.2 85.8 41.6 85.6 40 84.9 40.1 83 39.7 82 40.2 81.9 40.3 81.8 41 81.7 41.2 81.5 41.3 81 41.3 80.8 41.3 80.5 41.6 79.6 42.4 79.3 42.6 78.3 42.4 76.7 41 76.6 41 73.9 40.6 73 40.6 72.1 41 70.8 42.3 70.3 42.6 69.1 42.9 67.8 42.9 67.3 42.8 66 42.5 65 42.4 62.5 43.2 57.2 43.4 57.3 45.7 57.1 46.7 56.5 47.4 56.8 47.7 57 48 57 48.4 57.2 48.8 58.2 49.7 59.2 50.9 59.5 51.6 59.8 52.4 59.8 53.3 59.7 54.2 59.3 55.8 59.2 56.4 59.2 56.8 59.2 57.1 59 57.6 58.7 57.9 58.4 58.1 58.1 58.3 57.8 58.8 57.3 58.9 57 59.2 56.8 59.6 56.8 60.2 56.7 60.5 56.6 60.7 56.2 61.2 55.3 61.8 54.5 61.6 53.7 61.2 52.8 61.2 52.3 61.6 52.1 62 51.9 62.4 51.7 62.9 51.3 63.1 50.6 63.3 50.3 63.6 50.2 64 50.4 65.3 50.4 65.8 50.3 66.4 50.1 66.8 49.7 67.5 49.2 68.9 49.3 69.1 49.7 69.4 50.4 69.4 51.1 69 51.5 68.4 52.9 68.1 53.4 68.8 54.1 70.9 55.6 72.8 56.6 74.9 57.1 76.9 57 77.6 56.1 79.3 56.6 79.8 57.1 81.8 58 83.1 59.5 82.4 60 82.8 59.9 84.2 59 86.1 60.1 87.2 60.6 89.8 61.3 91.2 61.9 91.4 63.3 90.9 65.3 90.4 66.5 90.5 68.9 91.8 68.9 92.5 69.3 92.9 70 92.9 71.5 92.4 72.2 92 73 90.8 73.8 90.3 75.2 89.7 80.4 90.4 84 91.4 85.3 91.5 88 90.9 89.9 91.2 90.3 90.7 90.4 90.1 90.1 88.8 90.2 88.2 90 87.5 88.8 86.8 89.5 86.3 91.2 84.6 92.7 83.8 93.4 82.5 93.7 81.3 95.4 79.5 96.5 77.8 96.9 76.6 97.7 75.5 97.6 74.6 97.8 73.9 99.3 73.2 99.7 72.7 99.8 71.3 100.4 70.2"/>
<path class="st0" d="m107.6 171.5-0.9-1.5 0.2-1.3 0.1-0.5-0.4-0.4-0.6-0.4-0.7 0.3-0.4-0.2-1.5-0.4h-1.1l-0.3-0.1-0.2-0.2-0.1-0.2-0.1-0.1-1.3-0.4-0.3-0.2-0.3-0.5-0.4-1.2-0.2-0.2-0.3-0.1-0.3-0.2-0.3-0.3h-0.2l-0.4 0.2-0.3 0.1-0.4-0.1-0.9-0.6-0.4-0.3-0.3-0.5-0.2-0.5-0.2-0.4-0.4-0.2-0.5-0.1-0.5-0.2-0.4-0.3-0.3-0.3-0.3 0.2-0.3 0.1h-0.8l-2.4-0.5-0.3 0.4-2.7 1.7-0.8 1.2-1.4 2.9-1 1.2-1.2 0.8-0.7 0.3-0.7 0.1-2.8-0.6-1.8-1.4-0.5-0.2h-0.8l-0.6-0.1-0.5-0.3-0.2-0.3 0.2 0.3 0.1 0.4v0.6l-0.4-0.3-0.5-0.8-0.4-0.4 0.1 0.7v2.7l-0.1 0.6-0.2 0.5-1.3 2-0.1 0.3-1.6 2.5 0.2-0.3 0.3-0.3 0.3-0.2 0.4-0.1 0.2 0.2v0.3l-0.4 0.4-0.4 0.5-0.4 0.3-0.5-0.2-0.9 1.1-1.5 1.4-1.6 0.8-0.9-0.8h-0.3l-1 3.1 0.2 0.3-0.2 0.7 0.2 0.6 0.3 0.3 3.8 1.2 1.6 0.8 0.5 0.4 0.4 0.6 0.6 2 0.1 0.8-0.1 0.8-0.4 0.9 0.3 0.3 0.1 0.4v0.5l0.1 0.4h0.3l0.2-1.2 0.7-0.2 2.1 0.6 0.4 0.3 0.7 0.9 0.4 0.4 0.7 0.4 3.1 2.2 0.7 0.7 1.4 2.1 2.4 4.7 0.3 0.8 0.6-0.3 2.4 0.5 1.3-0.3 1.2 0.3 0.7-0.4 1.2-1.5-0.3-0.7 0.2-0.6 0.9-1.1 0.6-0.5 0.8 0.6 0.7-0.3 0.3-0.6-1-1.3-3.3-2.7-1.2-0.4-0.7 0.1-0.6-0.1v-5l-0.7-2.2 0.2-1.8 2.1-3.4 1.3-0.3 0.3 1.3 1.3 0.5 1.1 0.8 2.4 1.1h0.6l0.9-1.1 0.7-0.3 1.2 0.1 0.1 0.6 0.6 0.2 0.7-0.3 0.9-1.1 2-0.8 0.2-0.7-0.3-0.7-0.5-0.6 0.1-1.2 0.3-0.6 0.1-0.7-0.1-0.8 0.2-0.6 2.7-1.2 0.7-0.5 0.3-0.6 0.2-0.6v-0.6l1-1.8zm-44.1-11.3 0.2 0.4 0.1 0.6 0.3 0.5 0.7 0.1v-0.5l0.2-0.3 0.4-0.1h0.2-0.3l-0.2-0.1-0.2-0.2 0.3-0.5 0.3 0.1 0.3 0.3 0.3 0.2h0.7l0.3-0.1 0.4-0.3 0.5-0.5 0.3-0.4-0.2-0.1v-0.2l0.1-0.3 0.3-0.1 0.5 0.3 0.3-0.3-0.2-0.1-0.1-0.2 0.2-0.2 0.8-0.4 0.4-0.1 0.3-0.2 0.1-0.4 0.2-1-0.1-0.1-0.1-0.2h0.5l-1.5-2.5-0.1-0.4h0.5l0.2 0.1 0.4 0.3 0.8 0.9 0.3 2.7 0.3 0.4h0.7l0.7 0.2 0.4 0.5-0.2 0.9 0.4-0.1 0.2-0.1 0.2-0.2 0.3 0.2h0.1l0.3-0.1 0.3-0.2-0.2 0.6h0.7l-0.3 0.2-0.1 0.1v0.3l0.2 0.1 0.3 0.3-0.2 0.4v0.2 0.4l0.2 0.2v0.3l-0.5-0.3-0.5-0.5-0.6-0.3-0.6 0.2 1.5 0.8 0.3 0.3h0.7l0.5 0.1 0.3 0.3h0.2l0.4-0.8 2.3-1.7 0.5 0.3 0.5-0.1 0.5-0.3 0.6-0.1h2.1l1 0.9 0.7 0.4 0.3-0.2 0.1-0.9 0.3-0.5 1.8-1.5 0.3-0.1 0.2 0.2 0.2 0.3 0.3-0.8-0.1-0.9 0.7-1.4 1.5-1.3 1.3-0.3 0.7-0.4 0.3-0.6-0.1-1.4 0.6-1.3-1.1-1.2v-0.6l0.5-0.6-0.2-1.4 0.5-1.2-0.2-1.3 0.6-1.2v-0.6l-1.4-0.8-0.1-0.4-1.5 0.6-0.6 0.5-1.4 0.7-1.9-0.2-0.2 0.6v1.3l-1.5 1.2-0.8 0.1 0.1-0.6-0.4-0.7-2 0.3-1.3-0.2-1.2-0.6-1.9-1.3-0.5-0.6-0.5-1.3v-0.6l0.2-0.7 0.6-0.5 2.1-1v-0.6l-1.2-0.6-2-0.4-0.6-0.5-0.6-0.1-0.6-0.5-0.1-0.7 0.2-1.2-0.3-0.8-3.6-2.2-0.1-0.6 0.9-1.8v-0.6l0.2-0.6-0.3-0.7-0.9-1.3v-1.5l-0.8 0.3-1.9 1.6-1.4 0.7-0.7 0.2-4.5 0.1-0.7 0.3-0.6 0.5-0.4 1.2 0.1 0.5 0.2-0.1 0.5 0.2-0.2-0.3v-0.3l0.1-0.3 0.3-0.3 1.8 1.8 0.9 1.2v1.1l-0.3-0.1-0.3 0.3-0.1 0.4 0.2 0.4-0.3 0.6 0.1 0.5 0.5 0.8 0.2 0.1h0.3l0.1 0.7 0.1 0.2 0.3 0.3-0.1 0.4-0.2 0.1-0.4-0.2v-0.1l-0.8-1-0.6-0.4h-0.7l-0.4 0.3 0.3 0.6v0.3l-0.2 0.2-0.2 0.1-0.1 0.2v0.4l-0.9-0.8-0.5-0.3-0.5-0.1-0.3-0.3v-0.7l0.1-0.6-0.1-0.3-0.6-0.1-0.4-0.2-0.3-0.2-0.5-0.2h-0.5l-0.4 0.1h-0.4l-0.3-0.5h-0.2l-0.2 0.8-0.4 0.4-0.6 0.1h-0.7l0.2-0.3v-0.2l-0.2-0.2 0.1-0.1v-0.4l-0.1-0.4h-0.3l-0.4 0.8-0.5 0.7-0.7 0.4-0.7-0.2-0.6-0.4-0.2-0.8-0.2-0.3-0.4 0.9-0.1 0.7 0.1 0.8 0.3 0.7 0.8 0.4 0.3 0.2 0.3 0.3 0.1 0.3-0.2 0.1h-1.2l-0.7 0.3-0.3 0.8-0.2 0.9-0.3 0.6v0.3l1.2 1 0.2 0.8 0.1 0.2 0.4-0.3 0.3 0.1 0.2-0.2 0.2-0.1 0.3 0.5 0.3-0.5 0.4-0.7 0.7-0.9 0.5-0.2 0.5 0.4 0.3 0.7 0.9 3.7 0.3 0.6 0.4 0.4 0.5 0.2h1.4l0.3 0.4 0.5 1.7 0.8 0.8v1l-0.3 1.9 0.1 0.5 0.3 0.7 0.1 0.4 0.2 0.2 0.4-0.2 0.4-0.3 0.1-0.2 0.3-0.2 0.3-0.3 0.3-0.2 0.3 0.2v0.3l-0.1 0.4-0.3 0.7 0.2 0.1 0.3 0.3h-0.2l-0.2 0.1-0.3 0.2 0.6 0.3h0.3v0.4l-0.2 0.4 0.3 0.9-0.2 0.6 0.5-0.3-0.1 0.6-0.3 0.1-0.4-0.2-0.4-0.5v0.2l-0.1 0.1 0.1 0.6 0.2 0.5 0.3 0.4 0.4 0.2 0.3-0.5h0.4l0.7 0.5-0.2 0.5-0.3 0.4-0.4 0.3-0.4-0.2 0.1-0.3-0.2 0.3-0.3 0.7 0.1-0.1 0.3-0.2 0.1 0.5-0.1 0.3-0.3 0.2-0.4 0.2 0.5 0.1h1.1l0.2-0.1z"/>
<path class="st1" d="m147.5 120.3-0.6-0.3-0.4 0.3-0.5 0.4-0.4 0.5-0.2 0.5-0.2 0.2-0.5 0.1-0.4 0.3-0.1 0.8 0.3-0.1h0.8l0.4 0.1 0.3 0.2 0.3 0.4 0.3 0.1 0.5-1.2 0.5-0.5 0.6 0.4 0.3-0.9-0.3-0.7-0.7-0.6zm9.3 3.5-0.7-0.1 0.1-0.7-1.2-0.4-1.1-0.7-1-0.8-0.8-0.9h-0.4v-0.2l-0.5 0.3 1.1 1.8 0.1 0.6 0.2 0.4 1.1 1.1 0.4 0.2v0.3l-0.4 0.3v0.3l0.3 0.2 1 0.2 0.5 0.4 0.4 0.1 0.9-0.1 0.7-0.5 1.2-1.3v-0.3l-0.7-0.2h-1.2zm7.5-6.9 0.1-0.2v-0.2l0.1-0.2-0.6 0.4-1.8 2.9-0.6 1.7-0.4 0.5-0.5 0.4-0.5 0.7 1.1 0.1 1.1-0.8 0.9-1.3 0.5-1.4 0.5-0.4 0.6-1 0.2-1-0.8-0.2h0.1zm4.5-3.4-0.3 0.2-0.1 0.2v-0.3l-0.1-0.4-0.3 0.1-0.3 0.4-0.2 0.5-0.1 0.5 0.1 0.3 0.4 0.2 0.1 0.2-0.2 0.1v0.3l0.3 0.4 0.7-0.3 0.4-1.2v-0.7l-0.1-0.2-0.3-0.3zm-28.2 3.9-0.8-2.5-1.7-1.7-0.5-1-3.1-3.5-0.4-0.6-0.4-1.4-0.3-0.3-1.4-1.1-1.8-0.8-1.9-1.2-0.5-0.4-0.5-0.9-0.8-2.8-1.1-2.7-0.2-0.8-0.1-1-0.1-0.7-0.3-0.8-0.3-0.6-0.9-1.2-0.5-0.5-0.8-0.4-1.4-1.2-0.4-0.5-0.3-0.6-0.5-1.7v-0.1l-0.4 0.1-1.9 0.3-0.6-0.5-0.6-0.1-2.9 0.8-1.3-0.5-1-1.1-0.8-1.4-2.4-1.7-1.1-1.2-0.4-1.4 0.1-2-0.3-0.7-1.2-0.7-1.5 0.5-0.6 0.5-0.7 1.2-0.8 0.6-0.6-0.2-0.3-0.7 0.1-0.8-0.1-0.7 0.4-0.6 0.1-0.6-1.8-0.3-0.7 0.4-0.4 0.6-0.3-0.7-0.8 1-0.3 1.2-1.1 1.8-1.7 1.8-0.3 1.2-0.7 1.3-1.4 0.8-1.7 1.7-0.7 0.5 1.2 0.7 0.3 0.7-0.1 0.6 0.3 1.3-0.1 0.6-0.5 0.4-1.9-0.3-2.7 0.6h-1.4l-3.6-1-5.3-0.7-1.4 0.6-0.7 0.5-0.8 1.2-0.7 0.4-1.5 0.5h-0.7l-0.4-0.4-1-0.3-0.7 0.3-0.3 0.6-0.7 0.4-0.4 0.7-0.2 0.6 0.6 2.8v1.3h-0.6l-0.6-0.5-1.4-0.1-0.7 0.4-0.5 0.6 0.4 1.5v1.3l0.5 0.7 0.6 0.2 0.4 0.7-0.2 1.2 0.3 1.3-0.5 0.6-0.1 0.6 0.5 0.7 0.3 0.8-0.1 0.7 0.3 0.8 1.7 1.4 0.5 1.6 1.3 1 1.9 0.3 0.7-0.2 0.9 1 0.5 1.3-1.9 3.6 0.1 0.8 0.9 1.4 0.5 0.2 1.7-1.8 1.3-0.9 0.7-0.2 1.1 0.9 0.6-0.5 0.2-0.6 0.7-0.5 3.1-0.8 0.6 0.5 0.3 0.7 0.2 1.9 1.2 0.7 0.3 0.7-0.3 1.2 0.3 0.7 0.6 0.5 0.6 0.1 0.7-0.3 2-1.4h0.7l1.2 1 1.2 0.4 0.5 0.7 0.2 1.3-0.2 0.6 0.1 0.7 0.6 0.1 1.3-0.3 1.5-0.8 1-1.1 0.7-0.4 1.3-0.3 0.8-0.6 1.1-2.6 3.2-3.7 1.7 1 2.5 0.9 1.3 0.8 0.6 0.5 0.3 2.1 0.6 0.5 2.3-0.2-0.2 1.1 0.2 2 0.3 0.7 0.6 0.4 1.4 0.1 2.7-0.3 0.7 0.3 2.3 1.5h0.6l1.9 0.6 1.3-0.1 0.6 0.2 1.1 1.1 2.1-0.1 1.4-0.6 0.8 0.3 0.2 0.1 0.1 0.1 0.4-0.4 0.2-0.3 0.4-1.2 0.3-0.3 1.2-0.6 0.3-0.3v-0.3l-1.1 0.1-1 0.3-1.8 1.1-0.2-0.8 0.3-0.4 1.1-0.7-0.2-0.3-0.1-0.1 0.2-0.6-0.6-0.7-0.3-0.8-0.4-0.8-0.9-0.6 0.2 0.6h-0.2v0.2l-0.6-0.6-0.2-0.9-0.1-0.9-0.3-0.8-0.3 0.3-0.2-0.5-0.3-0.3h-0.2l0.1 0.5-0.5 0.5-0.3 0.5h-0.2l-1-2.9-0.1-0.6 0.1-1.8 0.6-0.8 1.3-0.3 1.4-0.1 0.8-0.2-0.4-0.4-0.1-0.6 0.1-0.6 0.4-0.4v-0.3l-0.3-0.4h0.2l0.8 0.2h1.3l0.2 0.2 0.4 0.7 0.2 0.3 0.1 0.2v0.3l2.8 0.3 0.6 0.2 0.7 0.5 0.6 0.6 0.6 0.8 0.4 0.8-0.1 0.8 0.4 0.4 0.9 1.6 0.2 0.5-0.1 0.5-0.3 0.5-0.3 0.3-0.1-0.2-0.2-0.1h-0.3l-0.2 0.2 0.2 0.4-0.4 0.5-2.6 1.5 0.5-1.9v-0.6l-1.4 0.3-0.5 0.4 0.2 0.6-0.4 0.6-0.3 0.6 1.4 0.4h0.8l0.6-0.3 0.5-0.3 0.8-0.2h0.8l0.4 0.2 0.4-0.4 0.3-0.2 0.3-0.1v-0.3h-0.2l-0.2-0.1-0.1-0.1-0.2-0.1 0.5-0.2 0.7-0.2 1.4-0.2 0.7-0.2 1.1-1.1 0.4-0.2-0.1-0.6-1.7-3.6zm36.9-4.7-0.2 0.6-0.2 1 0.1 0.1 0.2 0.1 0.3-1v-0.5l-0.2-0.3zm-5.4-2.7-0.2 0.6-0.2 0.3-0.2 0.1-0.1 0.3v0.4l-0.1 0.3-0.3 0.4-0.1 0.3 0.3 0.1 0.1 0.1v0.2l0.9-1 0.1-0.2 0.1-0.3-0.2-1.4-0.1-0.2zm-2.6 17 0.4-0.4-0.3-0.3-0.1-0.7 0.2-0.3 0.2-0.1h0.3v0.2l-0.1 0.2 0.1 0.2-0.1 0.5v0.1l0.1 0.2h0.1l0.2 0.1v0.4l-0.4 0.2h-0.3l-0.2 0.2-0.1-0.5z"/>
<path class="st1" d="m273.4 290.1-1.5 0.3-1.3 0.5h-0.2l-0.4-0.2-0.3-0.1-0.1 0.1-0.2 0.6-0.1 0.1-0.3 0.2-0.6 0.8-0.4 0.2-0.1 0.2 0.2 0.4 0.4 0.4 0.4 0.2 0.4-0.1 0.6-0.6 0.3-0.1 0.5-0.1 0.3-0.2 0.3-0.3 0.5-0.3 0.3-0.1 0.9-0.2h0.5v-0.3l-0.3-0.9 0.3-0.1 0.2-0.2v-0.3l-0.3 0.1zm7.5-3.7-0.2-0.3v-0.3l0.4-0.4 0.2-0.3-0.3-0.1-0.2-0.3-0.9-1.6-0.9-0.7-0.1-0.3v-0.7l0.1-0.8 0.4-0.5 0.4-0.4 0.1-0.4 0.2-0.7 0.4-0.5 0.4-0.4 0.2-0.3v-0.4l-0.2-0.5v-1.4l0.1-0.6 0.5-0.8 0.1-0.6-0.2-0.2-0.2-0.1h-0.3l-0.3 0.3-0.5 0.7-0.2 0.3h-0.3v-0.3h-0.2l-0.4 0.2v0.3l0.2 0.8v1.3l-0.3 1.3-0.9 1.1-0.1 1.1-0.3 1.1-0.8 0.5-0.2 0.2-0.3 0.5-0.3 0.6v0.6l0.3 0.4 1.2 0.8 0.2 0.5v0.3l-0.1 0.4v0.6l0.4 1.2v0.5l-0.6 0.1v0.3h0.3v0.3l-0.5 0.2v0.4l0.2 0.5 0.3 0.4 0.4 0.2 0.5 0.1 0.3 0.3-0.2 0.7 0.4-0.2 0.4-0.3 0.3-0.3 0.2-0.4h-0.2l-0.3 0.3 0.2-1.1 0.7-0.8 0.9-0.4 0.9 0.2 0.2-0.9-0.1-0.5-1.4-0.8zm12.7-32h-0.6l-0.5 0.1-0.3 0.1-0.3 0.4v0.6l0.5 0.2 0.7-0.2h0.6l0.5 0.1 0.7-0.2h0.3l0.1-0.1 0.1-0.4v-0.4l-0.1-0.2h-1.7zm-63.1-6.4-1.3-0.5-0.3 0.3-0.3 0.4-0.5 0.2-0.2 0.1 0.2 0.6 0.2 0.3h0.3l0.9 0.2 0.5-0.1 0.4-0.2 0.6-0.1 0.4 0.2 0.4 0.3 0.3 0.1 0.3-0.6-0.7-0.1-1.2-1.1zm87.3-2.2-0.3-0.5-0.3-0.3h-0.3l-1.1 1.4-2.4-0.1-1.2 0.6-0.5 0.4-4 2.2-2.1 0.7-0.3 0.3-0.3 0.5-1.2 1.2-0.3 0.4-0.2 0.2-1.1 0.3-0.2 0.2-0.3 0.7-0.3 0.4-0.2 0.6-0.1 0.4v0.3l-0.1 0.2-0.3 0.2 0.2 0.4-0.3 0.3-0.9 0.3-1.4 1-0.6 0.2 0.2 0.4h0.4l0.3 0.3v0.2l-0.2 0.3v0.2l0.9 1 0.5 0.4 0.4 0.5 0.1 1-0.2 1.1-1 3.1-0.5 0.6 0.6 1.4 0.1 0.3 0.2 0.1 1.5 1 1.7-1 1.3-1.2 1-1.4 1.4-2.4 0.6-0.6 1.6-1 0.9-0.3h0.7l1.9 0.6-0.3-0.7-0.1-0.2 0.3-0.3 0.2-0.3 0.1-0.3 0.1-0.4-0.4-0.1-0.3-0.1-0.6-0.4 0.9-2.1 0.3-0.1 0.2-0.6 0.1-0.2h0.2 0.7l0.2-0.4 0.5-1.4 0.2-0.3 0.3-0.2 0.2-0.5 0.1-1.3 0.2-0.6 0.8-1 0.3-0.5 0.2-1.6 0.2-0.3 0.7-0.4-0.4-2 0.5-0.6 0.3-0.2zm-99.9-0.5-1.2-0.9-1.3-0.4-0.6 0.3v0.3l1.4 0.4 0.5 0.3-0.2 0.6v0.2l0.3 0.2 0.2 0.4 0.2 1.2-0.3 0.3-0.3 0.7-0.4 0.3-0.4 0.1h-0.8l-0.4 0.2 0.6 0.4 1.7 0.5 0.7 0.1 0.7-0.3 0.5-0.7 0.3-0.9 0.1-0.9-0.4-1.2-0.9-1.2zm71.3 1.6-0.1-0.1-0.6 0.4-0.8-0.1-0.4-0.5 0.3-0.8-0.5-0.3-0.5-1.3-0.5-0.3-0.5 0.3-0.6 0.5-0.5 0.2-0.4-0.7-0.2 0.8v0.9l0.1 0.4 0.5 0.3 0.2 0.4h0.2l0.3-0.4 0.3-0.3 0.4-0.1 0.5 0.3-0.2 0.6 0.3 0.8 0.5 0.5 0.4-0.1 0.3 0.2 0.2-0.2 0.4 0.1 0.4-0.2 0.4-0.4 0.2-0.4v-0.4l-0.1-0.1zm-9.9-8.9-1.1 0.7-0.4 0.9 0.1 0.5 0.4 0.3 0.8 0.1h0.5l0.8-0.4 0.3-0.8-0.4-0.9-0.3-0.4h-0.7zm-26.4-0.2-1.3-0.8-1.1-0.1v0.3l0.3 0.3 0.3 0.2 0.4 0.1v0.1l-0.1 0.4 0.2 0.4 0.5 0.3-0.4 0.2h-0.3l-0.3-0.1-0.4-0.1-0.2 0.1-0.4 0.6-0.3 0.2-0.5-0.3-0.6-0.6-0.6-0.4-0.5 0.3-0.5-0.3-0.2 0.4 0.1 0.6 0.3 0.5-0.1 0.2v0.1l-0.1 0.3 0.6 0.4 0.7 1.2 0.6 0.3 0.9-0.1 0.3-0.3-0.1-0.6v-0.6l0.5-1 0.4-0.4 0.5-0.1h1l0.5-0.2 0.5-0.5 0.2 0.4 0.2 0.2h0.2l0.2-0.2-0.2-0.6-1.2-0.8zm48.8 2.3 0.5 0.3 1.6 0.5-0.3 0.2-0.3 0.3-0.2 0.1v0.3h0.5l0.4-0.1 0.8-0.5-0.2-0.4-0.1-0.1-0.2-0.1 0.2-0.1 0.3-0.2-0.1-0.3-0.1-0.4v-0.5l0.1-0.4v-0.3l-0.1-0.1-0.2 0.2 0.1-0.1 0.2-0.4 0.2-0.1-0.1-0.1-0.1-0.2-1.2 1-0.3-0.5h-0.1l-0.3 0.1 0.3-0.6 0.5-0.3 1-0.3-0.1-0.4-0.7 0.1-0.9 0.5-0.6 0.8v-0.3l-0.3 0.3h-0.2v0.5l-0.3 0.5-0.4 0.5-0.2 0.4h1.7l-0.8 0.2zm-104.7-4.4h-1l0.3 0.8 0.5 0.4 0.6 0.2 0.6 0.4 1 1 0.6 0.2 0.9 0.1v-0.3l-0.6-1-2.9-1.8zm11.4-2.4h-1.4l-0.4 0.1-0.7 0.6-0.4 0.1-1.3 2.8 0.9 0.1 1.3-1.1 1.9-2v-0.5l0.1-0.1zm-23.4-2.2-0.8 0.2-1.4 0.8-0.9-0.3-0.6-0.5-0.5-0.3-0.4 0.5v0.3l0.4 0.4 0.3 0.5 0.4 0.3 0.5-0.3 0.3 0.3 0.3 0.5 0.1 0.5-0.4 0.2h-1.2l-0.7-0.4-0.4-1.3-0.5 0.1-0.6-0.4-0.4-0.6-0.3 0.4-0.3 0.8-0.4 0.4 0.2 0.1 0.3 0.3-0.2 0.2-0.2 0.3-0.2 0.1 0.2 0.6-0.3 1 0.1 0.6 1.4-0.5 4.3-0.1 1.2-0.4 0.7-0.3 0.3-0.3-0.1-2.4 0.1-0.5-0.3-0.8zm4.4-0.7-0.5-0.3v-0.1l-0.2-0.1h-0.6l-0.5 0.6 0.8 1.1 0.5 0.5 0.5-0.1 0.3-0.6-0.1-0.5-0.2-0.5zm26.5 4.7v-0.3l-0.2-0.4v-0.4l0.2-0.3 0.4-0.1-0.4-0.7-0.6-0.3-0.6-0.2-0.6-0.3-0.4-0.5-0.6-1.1-0.4-0.6-1.6 1.2 0.1 0.3-0.1 0.6-0.2 0.6-0.2 0.4h1l-0.2 0.2 2.3 2.3 1.3 0.6 0.8-1zm-28.2-7h-0.2v-0.1l-0.1-0.1-0.3 0.2h-0.2l-0.2-0.1-0.2-0.2-0.4-0.1-0.5 0.1-0.6 0.2-0.3 0.3-0.2 0.5 0.1 0.3 0.2 0.3 0.1 0.5 0.3 0.3 0.6 0.2 0.6-0.1 1-1.8 0.3-0.3v-0.1zm30.9-1.6-0.9 0.6-0.6 0.6-0.3 0.5 0.4 0.4 0.8-0.1 0.7-0.5v-1l-0.1-0.1h-0.2l0.3-0.3-0.1-0.1zm58.6 5 0.8-0.1 2.2-2.3 0.8-0.5 3.9-1.1 1.2-0.6-0.5-0.8-1.8-0.4-0.4-0.7-0.5 0.2-3.6 0.6-3.7 2.3-0.2 0.3-1.2 1.1-0.5 0.9-0.3 0.4-0.5 0.5-0.8-0.5-0.2-0.1-0.8 0.8-0.4-0.2-0.2 0.6-0.1 1.6 0.2 0.4 0.5 0.6 0.6 0.5 0.6 0.1-0.2-0.6v-0.6l0.2-0.5 0.5-0.2-0.4-0.9 0.6-0.6 2-1 0.5 0.3 0.8 0.3 0.9 0.2zm-52.2-6.9-0.4 0.4-0.8 0.4-0.2 0.4 0.8 0.1 0.8 0.2h0.7l0.4-0.5-0.9-0.7-0.4-0.3zm14.5 0.4-0.7-0.4-0.6-0.5-0.5-0.6h-0.3l-0.3 0.4-0.4 0.3-1 0.3v0.3l0.3 0.1 0.2 0.2 0.2 0.1v0.3l-4.1 2.1-0.4 0.1-0.1 0.2 0.1 0.4 0.2 0.2 0.4-0.2-0.5 1.1-0.1 0.2h-0.8l-0.3 0.1-0.2 0.2h-0.3l-0.4-0.3-0.5 0.1-0.5 0.4-0.3 0.5-0.5-0.3 0.6 1.1 1.6-0.1 2.9-1 0.5-0.4 1-1.7 0.5-0.4 0.5-0.2 1.5-1.1 0.5-0.5 0.4 0.1 0.6-0.2 0.6-0.1 0.6 0.3h0.2l0.1-0.1v-0.2l-0.7-0.8zm-35.2-2.7-0.4-0.4 0.4-0.7 0.6-2.4h-0.5l-0.7 0.4-0.6 0.6-0.4 0.6 0.2 0.9 0.6 0.9 0.7 0.6 0.5 0.1-0.4-0.6zm-11.5-1-1.3-1.5-0.4-0.7h-0.1l-0.3 0.3-0.3-0.2-0.9-0.7h-0.5v0.3h0.2l-0.2 0.2v0.4l0.4 0.1 0.4 0.8 0.4 0.3v0.4l-0.3 0.7 0.4 1.2 0.6 1.3 0.5 0.9 1.2-1.4 0.1-0.2 0.5-0.3 0.1-0.2v-0.3l-0.5-1.4zm76.6-3.8 0.3 0.1 0.3 0.3 0.3 0.7 0.5 0.5h0.1l0.2-0.1 0.3-0.1 0.3 0.3 0.1 0.3-0.1 0.3-0.1 0.2-0.1 0.1-0.2 0.4-0.3 0.5-0.2 0.6 0.2 0.7-0.4 0.4-0.3 0.6 0.3-0.1 0.3 0.2 0.3 0.3 0.3 0.4 0.3-0.3h0.2l0.3 0.1 0.4 0.1 0.3-0.2 0.2-0.8 0.2-0.3 1.1 0.4h0.6l0.3-0.6h-0.2v0.3h-0.3v-0.3l0.2-0.3-0.2-0.5 0.3-0.8-0.1-0.5-0.3-0.2h-0.3l-0.3 0.2-0.3 0.4v-0.8l-0.4-0.3-0.5-0.3-0.3-0.6h0.5v-0.3l-3-1.3-0.4-0.6-0.1 0.6-0.3 0.3zm-38.9-1.2 0.1-0.2 0.4 0.3h0.4l0.3-0.2 0.2-0.4-0.2-0.1-0.3-0.5 0.2-0.6-0.9 0.5-0.4 0.2h-0.6l0.7 1.3 0.1-0.3zm-19.5 3 0.2-0.4 0.2-0.3 0.4-0.1v-0.3h-0.5v-0.3h0.5v-0.3l-0.6-0.3v-0.6l0.6-1.5 0.3-0.9 0.1-0.4h-1l0.1 0.5 0.1 0.2-0.5 0.6-1-0.2-0.3-0.3 0.5-0.8-1 0.4-1.1 0.6-1 0.9-0.5 0.8h0.2l0.2 0.1 0.3 0.2-1.1 0.7-0.4 0.5-0.4 1.7v0.5l0.3 0.2 0.4 0.1 0.8 0.7 0.3 0.1 1.3 0.1 0.6-0.2 1-0.7 0.7-0.7 0.3-0.6zm56.5-3.7v0.4l0.4 0.3 0.4 0.1h0.3l0.2-0.1v-0.3h0.1l0.3-0.1v-0.5l-0.3-0.5-0.2-0.2-0.3-0.9-0.4-0.2-0.4-0.1 0.1-0.4 0.2-0.5-0.1-0.3-0.3-0.1-0.2-0.1-0.2-0.2h-0.1l-0.2-0.1-0.3-0.2h-0.3v0.3l-0.1 0.1h-0.5l-0.4 0.4 0.1 0.6 0.4 0.4 0.2 0.3 0.8 0.4-0.2 0.8 0.2 0.4h0.5l0.5-0.3h0.3l-0.1 0.3-0.4 0.3zm-44.8-2.2-0.4-0.8-0.9-0.7-0.6-0.3-0.3 0.2-0.1 0.1-0.7 0.1-0.3 0.1-0.5 1-0.2 0.3-2.3 1.7-1.4 1.5-0.4 0.3-0.3-0.3-0.2 0.1-0.2 0.2v0.3l0.5 0.2 0.4 0.5 0.5 1.1v0.1l-0.1 0.3v0.4l0.2 0.4 0.2 0.3 0.1 0.3v0.3l-0.2 0.2 1 0.6 0.2 0.3 0.1 0.3 0.2 0.9 0.2 0.3 0.4 0.4 0.1 0.3 0.4-0.3 0.7-0.1 0.4-0.2 1.3-1.2 0.5-0.2h0.3l0.2-0.2 1-2.2 0.1-1 0.4-1.9 0.1-0.8-0.1-1.9-0.3-1zm-41.1-1.1 0.3 0.3-0.3 0.1-0.1 0.1 0.1 0.3-0.3 0.2-0.2 0.2v0.2l0.3 0.3-0.4 0.4 0.1 0.5 0.2-0.3 0.2-0.2h0.3l0.3 0.2 0.2-0.3 0.1-0.1 0.1 0.2 0.1 0.4 0.3-0.2 0.3-0.1 0.3 0.1 0.3 0.2h-0.3v0.2l0.1 0.1v0.1l0.1 0.1 0.4-0.3 0.3-0.3 0.1-0.4v-0.6h0.3l0.2 0.6 0.1-0.8v-0.5l-0.1-0.8-0.2-0.6-0.2-0.2-0.2-0.1h-0.2l-0.2 0.2h-0.2l-0.5-0.3-0.6 0.2-1.1 0.9zm77.4-7.6-0.1-0.2-0.2-0.2-0.4-0.3-0.4-0.2-0.4 0.1-0.4-0.1h-0.3l-0.1 0.5 0.1 0.6 0.1 0.4v0.3l-0.1 0.3-0.2 1.1 0.1 0.4 0.4 0.1 0.1 0.2v0.3l0.4 0.3 0.4-0.2-0.1-1.5-0.4-0.5-0.2-0.3h0.2l0.1-0.1v-0.2l0.1-0.3 0.3-0.2h0.3l0.1 0.1h0.1l0.2 0.1 0.2 0.2 0.2-0.1-0.1-0.4v-0.2zm-79.7-3.7-0.3 1.2 0.6-0.2 0.4 0.2 0.1 0.5-0.3 0.5v0.3l0.2 0.1 0.1 0.2 0.2 0.1v0.2l-0.6 0.4-0.3 0.7-0.3 1.6 0.8-0.2 0.8-0.5 0.6-0.7 0.5-0.5 0.1-0.7 0.2-0.8 0.4-0.5 0.5 0.2 0.2-1-0.5-0.7-1.4-0.8 0.1-0.2 0.2-0.6 0.1-0.4v-0.6h-0.3l-0.6 0.7-0.9 0.7-0.6 0.8zm36.1 0.9 0.4 0.1h0.3l0.2-0.8 0.6-0.2h0.7l0.5-0.2 0.2-0.4 0.1-0.4-0.1-0.3-0.7-0.2-0.3-0.2-0.3-0.3-1.1-0.3-0.4 0.2-0.1 0.9-0.2 0.1-1.1-1.8-0.4 0.4-0.5 0.2-0.4 0.3-0.2 0.7 0.6 0.1 0.1 0.4-0.2 1.1h-0.3l-0.2 0.1-0.1 0.3v0.4l-0.1 0.4 3-0.6zm-15.1-0.3-0.2-0.2-0.2-0.1-0.1-0.1 0.1-0.4 0.3-0.4 0.1-0.3-0.1-0.5-0.3-0.7-0.3-0.6-0.3-0.4-0.9-0.1h-0.4v0.4l0.2 1v0.6l-0.2 0.8-0.4 0.6-0.7 0.1 0.4 0.2 0.1 0.1-0.3 0.2-0.2 0.3-0.1 0.3-0.1 0.4h1v0.3l-0.1 0.2-0.1 0.3v0.8l0.6-0.4 2.2-1.1 0.3-0.2 0.1-0.3-0.1-0.5-0.3-0.3zm-8.7-7.6 0.8-0.1-0.1-0.6v-0.3l0.1-0.5-0.3-0.3h-0.6l-0.4 0.3-0.4 0.4-0.6 0.3-0.6 0.1 0.4 0.3 1.7 0.4zm13 0.3 0.8 0.4 0.4 0.8 0.4 0.2 0.6 0.1 1 0.6 1.6 0.3 0.4-0.2 0.3-1.1 0.9-1.2-0.1-0.5-0.1-0.4-0.2-0.3-0.3-0.1 0.2-0.3-0.8-0.3-1.1-0.5-1-0.2-0.6 0.7-0.4-0.5-0.6-0.4-0.7-0.1-0.6 0.4-0.2-0.3-0.2-0.2-0.3-0.1h-0.4v-0.3h0.3v-0.3l-0.3-0.2-0.2-0.1-2-0.1-0.5 0.1-0.1 0.4 0.1 0.6 0.2 0.6 0.3 0.4 0.4 0.3 1.4 0.6 1.4 1.2zm-25.4-0.3 0.9-1.3 0.2-1.4-1-1.4h-0.5v0.3h-0.3l-0.2-0.3-0.3-0.1-0.3 0.1-0.4 0.2v0.3h0.5l-0.2 0.3-0.3 0.3-0.5-0.1-0.6 0.7-0.4 1v0.8l0.1 0.4-0.2 2.3v0.6l0.6 0.3 0.7-0.6 1-1.4 1.2-1zm22.3-7.2-0.1-0.6-0.4-0.3-0.6 0.2-0.3-0.3v-0.3l0.3-0.3 0.2-0.4v-0.6h0.2l0.3-0.3-1.5-1.2 0.6-1.5 0.2-0.9-0.4-0.4h-2.8l-0.9-0.4-0.3-0.2-0.1-0.4-0.3-1v-0.2l0.1-0.1-0.2-0.3-0.3-0.3-0.4-0.1h-0.4l-0.2-0.1-0.1-0.3 0.1-0.5-0.5-0.3-0.8 0.2-2 1.1-0.3 0.3-0.1 0.4 0.1 0.4 0.1 0.3v0.2l-0.4 0.1 0.4 0.4 0.5 0.8 0.3 0.4-0.2 0.6 0.1 0.2 0.3-0.1 0.3-0.4h0.2l0.6 0.7 0.8 0.6 0.7 0.8 0.2 1.3 0.6-0.4 0.4 0.3 0.6 1.1 0.4 0.5 0.4 0.3 0.4 0.2 0.6 0.1 0.2 0.3 0.7 1.9 0.4 0.4 0.8 0.6 0.3 0.4h0.2l-0.1-0.7-0.1-0.2 0.5-0.5 0.5-0.8 0.2-0.7zm75.8 36.2 0.8 0.9 0.1 0.2 0.1 0.1h0.5l0.2-0.1h0.1l0.3 0.1h0.3l-0.3-0.3-0.2-0.4 0.2-0.5-0.2-0.4-0.4-0.1-0.3 0.2h-0.1l-0.1-0.1h-0.8l-0.3 0.2 0.1 0.2zm-0.8-4.7h0.6l0.1-0.2h-0.1l-0.1-0.1-0.6-0.2-0.2 0.1v0.2h0.2l0.1 0.2zm-0.2-10.1 0.4 0.3 0.3-0.1 0.1-0.2-0.3-0.3-0.2-0.1 0.4-0.5-0.6-0.1-0.2 0.4 0.1 0.1v0.5zm-10.9 0 0.1 0.2 0.2-0.1 0.1-0.3 0.1-0.1v-0.1-0.1-0.1l0.1-0.2-0.1-0.4-0.2-0.2-0.6 0.2-0.7-0.2-0.2-0.4-0.1-0.1-0.4-0.3h-0.3l-0.1 0.2 0.2 0.2-0.3-0.2-0.1 0.2v0.1l0.2 0.2v0.1l0.1 0.3 0.2 0.1h0.4l0.1 0.2h0.5l0.2-0.1 0.2 0.2h-0.2l0.1 0.2v0.3l0.2 0.2 0.1-0.1h0.2v0.1zm-2.2-5.2 0.1 0.3h0.2l0.1 0.3 0.1 0.2 0.1 0.1 0.1-0.1h0.1v0.4l0.1 0.3 0.3-0.5 0.3-0.2-0.3-0.3-0.4-0.2-0.1-0.1v-0.3l-0.1-0.1h-0.2l-0.1-0.1-0.3-0.2 0.1-0.3h-0.1l-0.1 0.3-0.1 0.2 0.2 0.2v0.1zm7.9-3.4 0.2 0.2v0.3l0.2 0.4 0.3 0.1 0.1-0.1v-0.2l0.1-0.2 0.2 0.2 0.2 0.1 0.3-0.1 0.2-0.4h0.1l0.4 0.3h0.2v-0.2l-0.4-0.4-0.4-0.3-0.3-0.1-0.2 0.1v0.1l-1.5-0.2-0.2 0.1 0.2 0.2 0.3 0.1z"/>
<path class="st1" d="m85.8 231.7-0.2 0.1-0.1 0.5-0.2 1.3 0.5-0.3 0.1 0.4 0.2 0.2 0.2 0.3v-0.9l0.1-0.7-0.1-0.5-0.5-0.4zm-1.6-1.9-0.1-0.1-0.2-0.1-0.3 0.5-0.1 0.7v1.6l0.2-0.5 0.3-0.4 0.2-0.4v-0.5l0.6-0.3v-0.3h-0.2l-0.4-0.2zm61.7-28.8-0.4-0.6h-1.4l-0.7 0.4-1.8-0.4-0.6 0.1-1.1-1.1-0.6-0.1-1.1-0.8-1.8-0.6-0.5-0.6-0.3-0.7 0.2-1.2 0.8-1.9v-0.2l-0.7-0.3-0.1-0.4-0.1-1h0.5l-0.3-1-0.1-0.7 0.1-0.7 0.3-1h-0.6l-0.5-0.2-0.9-0.7 0.1-0.4v-0.3l0.1-0.1 0.8-0.1 0.6-0.4 0.5-0.1-0.1-0.3-0.1-0.4 0.2-0.8-0.6-0.3-0.6-0.5-1.1-1.1-0.6 0.3-0.9 0.1-0.9-0.1-0.6-0.3-0.7 0.1-0.5-0.7-0.1-0.8 0.2-0.4 0.3-0.2 0.1-0.5v-0.5l0.1-0.2 0.4 0.1 0.3 0.1h0.3l0.3-0.2 1.5 0.6 1.7-0.9 0.6-0.5v-0.1l-0.1-0.3-0.5-1.3-1.1-2.1-1.2-1.6h-0.3l-1.1-0.5-0.7 0.2-1.8-0.8-1-0.1-0.3 0.2-0.8 0.8-0.5 0.2-0.5 0.1-0.4 0.2-0.8 0.6 1.2 0.1-0.2 0.2h0.7l0.9 0.7 0.6 0.2 0.4 0.2 0.5 0.5 0.4 0.5-0.1 0.3-0.7 1.1-0.2 0.1h-0.9l-0.9 0.3-0.6 0.1-0.6-0.1-0.5-0.4-1.1-1-0.7-0.2-0.2-0.1-0.7-1.1-2.8-2.6-0.3-0.1-0.3-0.3-2.1-0.8-3.9-2.1-2.8-0.6-0.3 0.1-0.4 0.2-0.4-0.2-0.4-0.3-1.1-0.4-0.2-0.2-0.1 0.5-0.2 1.3 0.9 1.5-1 2.3v0.6l-0.2 0.6-0.3 0.6-0.7 0.5-2.7 1.2-0.2 0.6 0.1 0.8-0.1 0.7-0.3 0.6-0.1 1.2 0.5 0.6 0.3 0.7-0.2 0.7-2 0.8-0.9 1.1-0.7 0.3-0.6-0.2-0.1-0.6-1.2-0.1-0.7 0.3-0.9 1.1h-0.6l-2.5-1.1-1.1-0.8-1.3-0.5-0.3-1.2-1.3 0.3-2.1 3.4-0.2 1.8 0.7 2.2v5l0.6 0.1 0.7-0.1 1.2 0.4 3.3 2.6 1 1.3-0.3 0.6-0.7 0.3-0.8-0.6-0.6 0.5-0.9 1.1-0.2 0.6 0.3 0.7-1.2 1.6-0.7 0.4-1.2-0.3-1.3 0.3-2.4-0.5-0.6 0.3 0.3 1 0.2 1.8-0.4 1.4-1 1-2.3 1.8-0.6 1.2-0.2 1.6 0.1 1.8 0.3 1.8 0.7 1.4 1.1 1.1 0.9 1.2 0.3 1.6 0.2-0.5 0.2-0.1h0.3v0.3l-0.1 0.1-0.3 0.2 0.7-0.2 0.5 0.3 0.3 0.6v0.8l-0.2 0.4-0.5 0.8-0.1 0.4v0.6l0.1 0.4v0.4l-0.1 0.4 0.3 0.5 0.2 0.6 0.2 0.3 0.3-0.2h0.2l0.2 0.4 0.8 0.3 0.4 0.4 0.9-0.4 0.5-0.1 0.6-0.1 1.1 2.3 0.1 0.1 0.6 1.3h0.3l0.2-0.1 0.2-0.2 1.5-1.4 0.2-0.4-0.1-0.4 0.2-0.3 0.4-0.2h0.5v-0.3l-0.5-0.1-0.4-0.3-0.6-0.6 0.2-0.5-0.1-0.4-0.2-0.4-0.2-0.5v-0.4l0.2-0.5 0.4-4.3 0.2-0.6 0.4-0.5 1.3-0.4 1.4-0.9 0.6-0.2 1.3 0.1 2.4 0.6 0.1 0.3-0.1 1.2-0.2 0.9v0.5l-0.1 0.4-0.2 0.4-0.2 0.2h-0.1l0.2 0.7 0.4 0.4 0.9 0.7 0.9-0.7 0.8 0.4 2.5 3.5 0.5 1.1v0.9l0.7 0.8 0.6 1.4 0.7 1.1 1-0.2-0.6 1.5-0.1 0.8 0.7 0.3v0.3l-0.6 0.1-0.1 0.5v0.7l-0.1 0.6h0.7l-0.3 0.7-0.2 0.2 0.4 0.5 0.2 0.7-0.2 0.5-0.6-0.2-0.2 0.6-0.2 0.5v0.5l0.3 0.7 0.6 0.8 0.4 0.1 0.4-0.4h0.3l0.4 0.6 1.3 0.5 0.5 0.4 0.2 0.7v0.8l0.1 0.8 0.4 0.5 0.1-0.3v-0.2l0.1-0.1h0.3v-0.7l-0.3-0.5-0.1-0.5 0.2-0.5 0.5-0.3-0.2-0.4 0.2-0.3-0.7-1.8-0.2-0.8-0.1-1v-2.6l0.2-0.5 0.5-0.3 0.3 1 0.5-0.4 0.2-0.9-0.6-0.5-0.2-0.2v-0.4l0.2-0.4 0.3-0.2h0.3l0.2 0.2 0.2 0.6h0.3v-0.7l-0.1-0.5-0.3-0.3h-0.3l0.3-1 0.4-0.6 1.2-0.9-0.1-1.9 1.6-0.9 2.3-0.3h1.8l1 0.2 0.8 0.5 0.5 0.8 0.3 1.6 0.3 1 0.1 0.7-0.2 1.1v0.4l0.2 0.2 0.5-0.6 0.1-0.3 0.2 0.1 1.5 1.4 0.2 0.5-0.5 0.5 1.5 1.1 0.4 0.4 0.3 0.5 0.8 1.7 0.2 0.7 0.3 0.5h0.7l1.5-0.3 0.6 0.3 0.5 0.6 0.3 0.7-0.2 0.6v0.3l0.4 0.4 0.6 1 1.6 0.4 0.4-0.1 0.4-0.5 1.2 0.6 0.3-1-0.8-0.7-1.1-0.7-0.6-0.9 0.3-0.2 0.1-0.2v-0.2l-0.2-0.3v-0.3l0.1-0.1 0.3-0.2h-0.4l-0.2-0.4-0.2-0.2-0.7-0.3-0.4-0.3-0.7-0.3-0.1-0.1-0.4-0.8-0.7-1.1-0.5-1.2v-1.1l0.9-0.8h-1l0.1-0.1 0.1-0.3 0.1-0.1-0.5-0.4 0.2-0.4 0.4-0.5 0.3-0.5 0.3 0.3 0.5 0.3h0.5l0.2-0.5v-0.8l0.1-0.3 0.4-0.3 0.1-0.3-0.6-0.3-0.3-0.1h-0.4v-0.5l0.4-0.1 0.1-0.4-0.1-0.5-0.2-0.5-1-1-0.5-0.8 0.1-0.4-0.3-0.4-0.7-1.8-0.4-0.6 0.1-0.4v-0.8l-0.1-0.4-0.2 0.2 0.3-0.1-0.3-0.5-0.1-0.2h0.8l-0.2-0.8-0.3-0.8 0.1-0.5-1-1.4-0.3-0.8 0.6 0.2 0.1-0.2-0.3-0.4-0.6-0.2 0.3-0.3-0.2-0.1 0.3-0.2-0.1-0.2-0.2-0.2v-0.2l-0.5 0.2-0.7 0.1-0.7-0.1-0.3-0.6 0.1-1.2 0.1-0.6 0.2-0.3 0.2-0.2-0.2-0.5-0.3-0.4-0.1-0.1-1.2-2.2-0.3-0.8-0.9-1.6-0.4-0.4v-0.3h0.3v-0.3h-0.5l0.2-0.6-0.3-0.2-1.9-2.3v-0.4l0.3-0.6v-0.5l-0.5-0.5v-1.1l-0.2-0.3-0.2-0.2-0.2-0.3-0.2-0.5v-0.3l0.2-0.5v-0.3l-0.1-0.3-0.4-0.8 0.1-1.1 0.4-0.7 0.6-0.4 0.8-0.3 0.4 0.4 0.4 0.6-0.1 0.3 0.2 0.4 0.4 0.3 0.5 0.2-0.3 0.6 1 0.7 0.2 0.3 0.6-0.5 0.6-0.3 0.6-0.1 0.7 0.3-0.1-0.3-0.2-0.1-0.4-0.1h0.5l0.3 0.1 0.5 0.2v0.3l0.1 0.2 0.1 0.1h0.2l0.4-0.1h0.2l0.6 0.6 0.4 0.6 0.5 1.6 0.2-0.4 0.4-0.3 0.9-0.5 0.5 0.9-0.5 0.3 0.6 0.2 1.3-0.3 0.5 0.3 0.2 0.2 0.3 0.1 0.2 0.1 0.1 0.3v0.7l0.2 0.4v0.3l-0.2-0.2-0.8-0.5-0.1 0.7-0.3 0.6-0.4 0.3-0.4-0.2-0.4-0.3-0.1 0.6 0.1 1.4v0.1l0.4 0.2h0.4l0.3-0.3 0.8 0.5 0.3 0.3 0.2 0.4-0.7-0.3 0.3 0.5h0.5l0.5-0.1 0.4 0.1v0.3h-1v0.3l0.5 0.3 0.4 0.2h0.5l0.7-0.1-0.3-0.7-0.3-0.6v-0.4l0.7-0.1 1.3 0.1 0.7-0.1 0.6-0.3-0.7-0.3h-0.1v-0.3l0.2-0.3-0.4 0.1h-0.4l-0.3-0.2v-0.4l1.2-0.3-0.1-0.5h0.5l1.3 0.2-0.1-0.2v-0.4l0.6 0.1 4.2-0.2v-0.8l0.2-0.5zm-16.3 43v-0.2l-0.1-0.7-0.2-0.4-0.3-0.2-0.3 0.1-0.4 0.2-0.2 0.3-0.2 0.4-0.1 0.1h-0.1l-0.2 0.2-0.2 0.4v0.3l0.2 0.2 0.3-0.1 0.2-0.3 0.2-0.1h0.5l0.1 0.1 0.1 0.4 0.4 0.4 0.1-0.3v-0.3l-0.1-0.3 0.3-0.2zm-51.3-26.1-0.3 0.2-0.2 0.1 0.2 0.4 0.2 0.1-0.1 0.3v0.2l0.2-0.4 0.1-0.1v-0.3l0.1-0.2-0.2-0.3z"/>
<path class="st1" d="m247.6 190.3-1 1.1-1 0.6-1.1 0.3-0.7-0.3-0.7 0.2-2.1-0.3-0.9 0.1-0.5 0.3-0.7 0.6-0.6 0.7-0.2 0.7-0.3 0.5-1.2 1.2-0.3 0.6 0.2 0.9 0.5 0.1 1.4-0.4h0.5l0.3 0.1h0.3l0.3-0.1 0.4-0.3 0.7-0.7 0.4-0.3 0.7-0.3 3.1-0.4 0.6-0.3 3.2-2.8 0.9-1.1 0.6-1.2-1.7 0.1-1.1 0.4zm27.9-2.7-0.4 0.3-0.2-0.5-0.2-0.4-0.1-0.3 0.1-0.4 1.2-0.6-1.7-0.1-1-0.3v-0.6l-0.4 0.3-0.4 0.2h-0.4l-0.6-0.2 0.3 0.6 0.4 0.4 0.2 0.4-0.1 0.5-0.4-0.4-1.4-1-1.2-0.3-0.9-0.8-0.5-0.3-1.3-0.2h-1.2l-4.1 1-0.3 0.4-0.2 0.6-0.5 0.2-0.6 0.1-0.6 0.2-0.4 0.4-0.1 0.5v1.1l0.1 0.6 0.2 0.8 0.3 0.4 0.4-0.4h0.2v0.3h0.3l0.2-0.5 0.5-0.4 0.6-0.2 1-0.1 0.6-0.2h0.3l0.3 0.1 0.4 0.4 0.9 0.2 0.4 0.3 0.6 0.9 0.2 0.8 0.1 0.3 0.4 0.1 2.3 0.1 0.3-0.1 0.3-0.2 0.2-0.4 0.2-0.3 0.4-0.4 0.3-0.2 3.3-1.3 1.3-0.3 0.9 0.3 0.2-0.5v-0.5l-0.7-0.4zm-38.3-19.5 0.7 0.3 0.4-0.1 0.2-0.4 0.2-1 0.3-0.5 1.7-0.6 0.9-0.4v-0.7l-0.4-1.1 0.4-1 0.9-0.7 1-0.1-0.5-1.9-0.4-3.4v-0.6l0.1-0.7 0.4-0.6v-0.3h-0.6l0.2-0.3-0.3-0.1-0.1-0.1-0.3-0.4 0.8-0.3 0.2-0.8 0.1-0.9 0.5-0.6-0.3-0.6-0.4-0.4-0.5-0.1-0.5 0.2h0.2v0.3l-0.2 0.1-0.1 0.2v0.2l-0.1 0.2-1.6-1.8-0.1-0.3-1.7-0.6-0.7-0.1-5.2 1.1-0.1 0.7-0.3 0.5-0.2 0.5 0.1 0.7 0.3 0.6 1.1 1.4 0.5 0.4 0.6 0.3 0.5 0.1 0.4 0.1 0.4 0.4 0.2 0.5 0.2 0.6v0.6l-0.2 0.4 0.3 0.1 0.3 0.2 0.2 0.3 0.2 0.4 0.2-0.1 0.1-0.2 0.1 0.6-0.1 1.1 0.2 0.5-0.6 0.3-0.1 0.5v0.6l-0.2 0.5-0.2 0.1-0.9-0.1-0.4 0.5-0.2 0.1-0.6 0.1-0.5 0.2-0.4 0.3-0.3 0.7v0.6l0.3 0.3 0.6-0.4v1.3l0.2-0.1 0.4-0.1 0.2-0.1 0.2 0.5 0.3 0.6 0.4 0.3h0.1l0.1 0.1 0.8 1 0.4 0.3 0.2 0.1zm-14.2-20.1-0.2-0.4h-0.3v0.4h-0.2l-0.2-0.3h-0.3l-0.3 0.2-0.2 0.3-0.3-0.3-0.2-0.1-0.2 0.1-0.1 0.3 0.2 0.3 0.4 0.4 0.2 0.3 0.4 0.4 0.1 0.2v0.3l-0.2 0.6 0.1 0.4 0.4-0.3h0.3l0.4 0.1 0.5 0.1 0.1-0.3 0.3-1.6h0.2l0.1-0.1v-0.2l-1-0.8zm36.3-19.3 0.1-0.8v-0.4l-0.5-0.3-0.7-0.8-0.5-1v-0.9l-0.4 0.1-0.2-0.1-0.1-0.3v-0.5l-0.3-0.4-0.3-0.3-0.1-0.4 0.5-0.3-0.8-0.5-0.5-0.4-1.2-1.8-0.1-0.2-0.3-0.2-1.2-0.5-1.5-1.6-0.1-0.3 1.1-1.8 0.2-0.4-0.6-0.5-1-0.3-0.7-0.4 0.3-1-0.7-0.2-6.4 0.2 0.3 1.2 0.1 0.8-0.4 0.5-1 0.3-1.5 0.3-0.8 0.3-0.4 0.6h-0.3v-0.2l-0.2-0.4-0.1 0.3-0.2 0.4-0.1 0.3-1-0.2-1.3 0.3-1.2 0.1-0.4-0.9h-0.3l-0.2 0.3-1 1-0.6 0.2-0.3 0.2-0.1 0.3v0.5l-0.1 0.3-0.1 0.2-0.3 0.2 0.3 0.3h0.1l-0.2 1-0.1 0.4-0.4 0.2v0.3l0.7 0.3 1.2 1.3 0.6 0.3 0.5 0.1 0.3 0.2 0.5 0.4 0.5 0.3 3 1.1 0.8 0.1 0.7-0.2 0.5-0.5 1.6-2.3h0.1l0.5-1.3 0.5-0.5 0.5-0.3 0.6-0.2 0.8-0.1h0.4l1.1 0.3 0.4 0.2 0.4 0.4 0.1 0.4-0.4 0.2v0.1l-1.1 0.8-0.9 1-0.4 0.1h-0.4l-0.4 0.1-0.4 0.3-0.6 1-0.2 0.1-1.4 0.3h-0.4l-0.3 0.1-0.3 0.3-0.2 0.1v0.3l0.6 0.1 0.4 0.4 1.1 1.6 0.3 0.3 0.4 0.1 1.8 0.1 2.1 0.5 0.9 0.4 0.9 0.6 0.5 0.2 1.3 0.2 1.1 0.4 0.6 0.1 2.3-0.2 1.1-0.3 0.9-0.4-0.1-0.4 0.1-0.2v-0.3l-0.7-0.6-1.4-2-1.4-1.1-0.6-0.8 0.6-0.4 1.2-0.1 0.6 0.2 0.3 0.7 0.1 0.2 0.4 0.3v0.3l-0.2 0.5v0.4l-0.1 0.2v0.2l0.3 0.2-0.3 0.3 0.8 0.8 0.4 0.2 0.6-0.3 1.1 0.5 0.9-0.5zm-57.5-25-0.2 0.1-0.1 0.2 0.1 0.4-0.7 0.7-0.1 1.1 0.4 2.2h0.3l1.7-2.5 0.3-1.2-1.3-0.9-0.4-0.1zm15.7-21.5 0.3-0.5-1 0.6-0.3 0.1h-1.1l-0.5 0.4-0.8 1.1v0.4l-0.5 0.4-1 0.6-0.8 0.3 0.1-0.4-0.5-0.7-0.4-0.7-0.5-0.5-0.8-0.3-1.9 0.6-0.6 0.1-0.5-0.5-0.4-0.1-2.3 0.6-1.3 0.1v0.2l0.4 0.2 0.1 0.5v1.3l0.3 0.5 0.3 0.3 0.1 0.4-0.3 0.7h0.3l-0.1 0.2-0.1 0.1-0.2 0.1v0.3h0.2v0.3l-0.2 0.1-0.2 0.2v0.6l0.3 0.1 0.2 0.2 0.2 0.1-0.3 0.2-0.2 0.2-0.2 0.6h0.2l0.4-0.3 2.1-0.7 0.3 0.6v0.2h0.3l0.2-0.4 0.4-0.4 0.4-0.2 0.2 0.5-0.1 0.2-0.8 1.3 1.1 0.5 0.6 0.1h0.8l0.2-0.3-0.2-0.7-0.4-0.8-0.4-0.5-0.1 0.1h-0.1l-0.3 0.1 0.3-0.7 0.3-0.6 0.5-0.4 0.6-0.1-0.2-0.2-0.2-0.1h-0.6l1.5-1.2h0.4l0.5 0.3 0.4 0.4 0.2 0.7-0.2 0.4-0.4 0.4-0.8 0.6 0.6 0.1 0.6 0.9 0.6 0.2 0.1 0.2v0.6l0.1 0.4 0.3 0.2 1 0.3 0.2 0.1 0.4 0.3 0.1-0.3v-0.5l0.1-0.3 0.3-0.3h0.2l-0.1-0.3-0.3-0.4-0.4-0.5-0.2-0.5 0.5-0.5-0.4-0.5 0.1-0.4 0.4-0.4 0.6-0.3h-0.2l-0.5-0.3 0.3-0.3 0.3-0.2 0.4-0.1h0.5l-0.1-1.2 0.6-0.9 0.9-0.7 0.8-0.5-0.1-0.2-0.1-0.5-0.1-0.4v-0.2h-0.2v-0.3l-0.2-0.1zm36.1 111.7-0.2-0.2-0.2-0.1h-0.2l-0.5 0.5h-0.2l-0.4 0.2-0.3 0.3v0.1h0.3l0.2 0.1 0.4-0.2 0.4 0.1 0.2 0.1 0.1 0.2v0.2l0.2 0.1h0.2l0.1-0.1 0.2-0.4v-0.2l-0.3-0.7zm3.1-1.3h-0.2l-0.1-0.1v-0.2l0.1-0.3v-0.3l-0.4-0.4-0.3-0.1-0.3 0.1-0.2 0.3-0.1 0.3v0.5l0.2 0.1 0.3 0.1 0.1 0.3v0.8l-0.1 0.1h-0.3l-0.2 0.4h-0.2v-0.3-0.3l-0.1-0.2-0.2-0.1h-0.1v0.1l0.1 0.4v0.2l-0.1 0.2v0.9l0.1 0.1v0.2l0.2 0.3v0.3l0.1 0.3 0.1 0.1 0.2 0.3 0.1 0.1h0.1l0.2-0.1 0.1-0.3v-0.4l-0.1-0.2v-0.1l-0.2-0.2-0.1-0.4v-0.3l0.1-0.2 0.2-0.1h0.3l0.1-0.1 0.2-0.3 0.3-0.3 0.2-0.4 0.1-0.4-0.2-0.4zm-9.2-39.7 0.2 0.2 0.3 0.1 0.1-0.1v-0.2l-0.2-0.4-0.3-0.4-0.1 0.1 0.1 0.3 0.1 0.1-0.2 0.3zm-1-0.2 0.4-0.4h0.2l0.1-0.1v-0.2l-0.1-0.1h-0.1l-0.8-0.3-0.4-0.3-0.3-0.1-0.2 0.1h-0.1l-0.2-0.3-0.1-0.1h-0.7v0.1l0.5 0.7 0.1 0.3 0.1 0.1h0.1l0.4 0.2 0.5 0.1 0.2 0.1h0.2l0.2-0.1v0.2 0.1zm-26.1-2-0.2-0.3h-0.4l-0.1 0.2-0.3 0.5-0.1 0.2 0.3 0.1h0.6l0.2-0.2-0.1-0.2 0.1-0.3z"/>
<polygon class="st0" points="179.6 75 177.4 72.7 175.4 69.8 174.3 68.5 173.2 68.5 173 68.2 172.6 67.1 172.4 66.9 172 66.8 170.9 66.5 170.5 66.3 169.8 66.6 169 66.2 168.3 65.5 167.8 65 166.9 63.1 166.3 62.3 165.6 62.4 165.9 62.7 165.6 63 166.1 63.9 166.3 64.5 166.3 65 166.1 65.2 166.1 65.2 166.1 65.3 166.1 66.5 166.1 67.3 166.1 67.9 166 68.4 166.6 68.8 167.6 69.3 170.5 69.8 172 70.5 172.8 71.7 173.5 73.2 174.4 74.6 175 75 175.6 75.4 176.2 75.9 176.4 76.7 176.7 77.4 177.3 77.5 178.9 77.2 180 76.2"/>
<path class="st1" d="m58 187.8-2.5-1.6-0.6-1.3-0.5-1-1.3-1-1.5-0.6-1.1 0.3-0.9-0.5-0.4-0.3-0.3-0.8-0.7-1.4v-0.1l-0.2-0.2v-0.3l-0.8-0.2-0.9 0.9-1.5 2.1 0.3 0.3-0.2 0.3 0.2 0.8-0.3 0.5 0.8 0.5 1.4 1.8 0.8 0.7 0.1 0.7 0.8 0.9 1.8 1.5 1.1 1.4 0.3 0.2h0.8l0.4-0.1 0.2-0.3 0.1-0.6-0.1-0.3-0.2-0.5v-0.6l0.5-0.2 0.2-0.2 0.2-0.4 0.3-0.4 0.5-0.2 1 0.1 1.2 0.4 1 0.5 0.5 0.6-0.5-1.4zm-10.9-16.7 0.9 1 0.5 0.4 0.5 0.2h0.3l0.4-0.2 0.3-0.1 0.9 0.2h0.2l0.4-0.8 0.1-0.8-0.1-0.7-0.3-0.7-1.3-1.9-0.4-1.2-1.6-1.4-0.3-0.6v-0.6l-0.2-0.5-0.7-0.1 0.1-0.2 0.1-0.3 0.1-0.2-0.4 0.3-0.5 0.6-0.5 0.4-0.4-0.2-0.8-1.6-0.3-0.4 0.4-0.5 0.3-0.3 0.2-0.4 0.1-0.7-0.1-0.4-1.9-5.6h-1.2v0.3l0.2 0.4v0.4l-0.1 0.5-0.1 0.6v0.3l0.4 1.5-0.7-0.3 0.3 0.8v0.9l-0.3 0.8-0.8 0.5-0.6 0.7-0.4 0.1-0.3-0.3-0.1-0.5-0.1-0.3-0.3 0.4-0.5-0.7-0.3-0.9h-0.2l-0.5 0.9h-0.3v-0.3l-0.2-0.6-0.1 1.4-0.2 1.5-0.5 1.2-0.5 0.6-0.2 0.1-0.2 0.3-0.1 0.3 0.1 0.4v0.4l-0.2 0.5-0.3 0.4-0.1 0.4 0.2 0.8 1 0.6 0.2 0.8h0.2l0.4-0.5 0.5-0.2 0.5-0.3 0.3-0.8v-0.9l-0.3-1.5v-0.7l0.3-0.8 0.4 0.1 0.4 0.7 1 2.5 0.3 0.7 0.6 0.5v0.3l-0.4-0.2-0.5-0.6-0.4-0.1 0.1 0.5 0.6 1 0.1 0.3 0.1 0.8 0.1 0.4 0.5 0.6 1.3 0.4 0.7 0.5 0.6-1.1 1.2-0.2 1.4 0.4 1 0.6zm0.8-10 0.5 0.1 0.6-0.2 1-0.1v-0.3l-0.5-0.2-0.2-0.4-0.2-1.2h0.7l-0.7-0.6-0.4-0.2-0.4-0.1 0.2 0.3h-0.7l0.5 0.3v0.3h-0.8l-0.3-0.1-0.3-0.2 0.7-1.4 0.3-0.8 0.2-0.9-0.4-0.3-0.3-0.3-0.4-0.2-0.6 0.1 0.3-0.4 0.2-0.7-0.1-0.6-0.6-0.2-0.4 1.1-0.3 0.3-0.6-0.4-0.2 0.6 0.2 0.4 0.4 0.3 0.3 0.3 0.1 0.5 0.1 1 0.1 0.3 0.7 1.6 0.5 0.7 0.5 0.6-0.3 0.3 0.6 0.7zm6.8-10.5h0.5l0.1-0.6 0.4-0.7 0.8-1.1h-0.4l-1.4 2.1v0.3zm-0.6-1.7 0.3-0.5 0.4-0.4 0.3-0.2 0.3-0.1 0.5-0.3 0.5-0.4 0.4-0.5v-0.5l-0.2-0.1-0.8 0.2-0.6 0.2-0.6 0.6-0.7 1.1-0.1 0.5 0.1 0.4h0.2zm-3.2-0.7 0.5 0.2-0.4-0.4-0.3-0.2-0.4-0.4-0.5-0.4 0.1-0.5 0.9-0.3 0.3-0.3 0.2-0.3 0.1-0.2v-0.2h-0.2v-0.2l-0.1-0.1-0.1 0.1-0.3-0.3-0.8 0.4-0.6 0.1-0.3 0.5 0.5 1.2 1.4 1.3zm-8 0.3 0.4-0.7 0.3-0.4 0.6-0.4 0.4 0.9 0.7 0.1-0.2 0.4 0.1 0.3 0.2 0.2h0.4v-0.3l-0.2-0.5 0.3-0.4 0.6-0.1 0.6 0.3v-0.3l0.1-0.1 0.1-0.2v-0.3l0.4 0.2 0.1 0.1-0.2-0.7-0.1-0.2h0.2l0.3 0.6 0.2-0.1 0.2-0.5 0.1-2.5v-0.7l-0.3 0.4-0.2 0.5-0.2 0.4-0.3-0.1-0.1-0.4 0.2-0.4 0.8-1.2 0.1-0.3v-0.6l-0.2-0.8v-0.4l0.2-0.5-0.2-0.5v-0.7l-0.2-0.7-0.6-0.7-0.4-0.2-0.2-0.4-0.8 0.4-0.7 0.6-0.4 0.5-0.5 1-0.3 0.4-0.3 0.2-0.6 1.7-0.2 0.9-0.7 1.5-0.6 4.4v1.2h0.2l0.9-0.9zm-14-28.7-0.6-0.5-0.5-0.6-0.5 0.3 0.1 0.6 0.4 0.6 0.7 0.9 0.4 0.3 0.5 0.1h0.7l-0.4-1.1-0.8-0.6zm-2.4-8.1-0.3-1.4-0.2-0.5-0.4-0.6-0.3-0.1-0.3 0.2-0.5 0.2h-0.6l-0.3-0.1-0.8-0.6-0.5-0.2-1-0.2-0.5-0.2-0.4-0.3-0.1-0.3-0.7-4.9-0.4-1 0.6 0.3 0.2-0.2 0.1-1-0.9-0.2-2.1-1.1v-0.3h0.5v-0.2l-0.4-0.2-0.3-0.5-0.1-0.6 0.2-0.5 0.4-0.3 2.2-0.9 0.8-0.5 0.5-0.8 0.1-1.4h-0.3v0.3h-0.2l-0.2-0.4-0.4-0.2-0.9-0.3-0.4-0.3-0.6-0.6-0.5-0.2-1 0.6-0.9 0.4-1 0.2-3.5 0.2-0.3 0.1-0.2 0.4-0.9 1.3-0.4 0.4h0.5l0.3 0.3 0.1 0.5v0.7l0.7-0.4 0.2 0.3-0.1 1 0.3 0.6 0.3 0.3 0.4 0.1h0.6l0.1 0.3 1 2.2 0.4 0.3 0.8 0.4 0.9 0.7 0.7 0.8 0.4 0.9 0.2 2 0.3 1 0.4 1 0.5 0.7v-0.3l0.5 0.2 1.2 0.4-0.2 0.4-0.3 0.2h-0.2l0.1 0.2 0.4 0.1h0.5l0.6 0.1 0.4 0.2 0.9 0.8 0.3 0.2 0.6 0.1 0.6 0.2 0.6 0.3 0.8 0.6 0.9 0.3 0.3 0.3 0.4-0.3v-0.3l-0.2-0.9zm4.7 11.3-0.2-0.3-0.1-0.1-0.4 0.2-0.1 0.2 0.2 0.4h0.3l0.5 0.5h0.2l0.4-0.2-0.5-0.3-0.3-0.4zm-25.9-29.6-0.1 0.3 0.2 0.3 0.2 0.2 0.1 0.3 0.3 0.1 0.2-0.2-0.3-0.5-0.6-0.5zm-3.6-3.7-0.2 0.1-0.6-0.2-0.3 0.2-0.1 0.4 0.1 0.4 0.2 0.2 0.1 0.2 0.6-0.2 0.8-1.2h-0.6zm5.7-1.7-0.3 0.4 0.3 0.7 0.4-0.1h0.3l0.1-0.5-0.5-0.3-0.3-0.2z"/>
<polygon class="st0" points="70.4 120.5 72.3 116.9 71.7 115.5 70.9 114.5 70.2 114.7 68.3 114.4 67.1 113.4 66.6 111.8 64.9 110.4 64.6 109.6 64.7 108.9 64.5 108.1 64 107.4 64.1 106.8 64.5 106.2 64.2 104.9 64.4 103.6 64 102.9 63.4 102.7 62.9 102 62.8 100.7 62.4 99.3 62.9 98.7 63.6 98.3 65 98.4 65.6 98.9 66.2 98.8 66.2 97.5 65.6 94.8 65.8 94.2 66.2 93.5 66.9 93.1 67.2 92.5 67.9 92.2 68.9 92.5 68.9 91.8 66.5 90.5 65.3 90.4 63.3 90.9 61.9 91.4 61.3 91.2 60.6 89.8 60.1 87.2 59 86.1 59.9 84.2 60 82.8 59.5 82.4 58 83.1 57.1 81.8 56.6 79.8 56.1 79.3 57 77.6 57.1 76.9 56.6 74.9 55.6 72.8 54.1 70.9 53.4 68.8 52.9 68.1 51.5 68.4 51.1 69 50.4 69.4 49.7 69.4 49.3 69.1 49.2 68.9 49 69.1 48.8 69.4 48.4 69.6 48 69.9 47.7 70.3 47.5 71.4 47.6 72.3 47.6 73.3 47.2 74.4 47 74.6 46.5 74.7 46.3 75 46.3 75.3 46.4 75.8 46.4 76 46.6 76.9 46.5 77.1 46 78.6 45.9 79 45.6 79.2 44.7 79.6 43.4 80.2 42.5 80.3 40.6 80 39.9 80.2 39.4 80.5 38.2 80.4 37.5 80.7 37 81.3 36.6 82 36.3 82.8 36.2 83.7 35.6 83.8 33.8 83.8 33.3 84 33.5 84.3 34.1 87.2 34.2 87.5 35.1 88.3 36.7 91.1 36.9 91.9 36.6 92.8 36 93.4 35.4 93.4 34.7 93 33.4 92.5 33.3 92.5 33 92.4 32.7 92.5 32.5 92.9 32.5 93.1 32.7 93.3 32.9 93.6 32.8 93.9 32.6 94.4 32.5 94.6 32.6 94.7 32.9 95.1 33 95.2 33.1 95.6 33.3 95.8 33.4 96.1 33.3 96.6 32.8 97.2 32.1 97.5 31.6 98.1 31.5 99.1 31.2 98.9 30.9 98.8 30.5 98.8 30.3 98.9 30 99.2 29.9 99.6 30 99.9 29.8 100.2 29.3 100.3 28.5 100 27.5 99 25.9 98.2 24.4 97.7 23.2 97.3 22.7 97.7 22.8 97.7 23 97.7 23.4 97.9 24.3 98.3 25.9 98.6 26.1 99 26.4 99.2 26.8 99.3 27 99.4 27.6 99.9 27.7 100 28 100.3 28.6 100.5 29.2 100.9 29.4 101.8 29.3 101.8 29 102.1 28.9 102.1 28.9 102.3 28.9 102.9 28.9 103.1 28.7 103.4 28.4 103.7 28.2 103.7 27.9 103.4 27.9 104 27.9 104.5 27.7 104.9 27.5 105.3 28 105.1 28.6 105.1 29.2 105.1 29.9 105.3 29.5 105.7 29.9 105.7 30.3 106 30.6 106.3 30.6 105.7 31.1 105.7 31.8 106 32.1 106.3 32.1 106.6 31.8 107 31.5 107.1 31 106.9 30.4 106.9 30.4 107.2 31.8 108.1 32.1 108.5 32.2 109.1 31.8 109.3 31 109.2 30.4 109.4 30.7 109.6 31.1 110.4 31.4 110.7 31.4 111 31.1 111 31.1 111.3 31.9 111.4 32.3 111.9 32.6 112.5 33.1 112.9 33.2 114.4 34.3 115.8 35.8 116.5 36.8 116.1 37.2 116.4 37.7 116.7 38.2 116.7 38.7 116.4 38.9 116.8 39.2 117 39.5 116.9 40 116.7 40 117.1 39.7 117.5 39.7 118 39.8 118.5 40 119 39.8 119.4 40.2 119.8 41.2 120.5 44 124.1 45.2 125 46.3 125.6 47.3 126.4 47.9 127.5 48.3 129.1 48.2 129.2 48.1 129.4 47.9 129.6 47.8 129.9 47.8 130 47.9 130.1 48 130.2 48.1 130.5 48.2 130.8 48.4 131 48.7 131.3 48.8 131.8 49 132.1 49.4 131.7 49.8 131.2 49.8 131 50.1 130.8 50.3 130.8 51.4 131.1 52 131.5 52.3 131.6 52.5 131.5 52.4 131.1 52.2 130.8 51.5 130.5 49.8 129.1 49.5 129.1 49.4 129.1 49.3 128.9 49.3 128.4 49.8 128.8 49.9 128.3 50.2 128.1 50.5 127.9 50.8 127.5 50.9 127 50.9 126.4 51 126.1 50.5 125.9 50.5 125.6 50.9 125.4 51.2 125.2 51.4 125 51.5 124.6 51.7 125 52.1 124.5 52.5 124.8 52.7 125.6 52.2 126.6 52.4 126.4 52.5 126.2 52.7 126.2 53 126.2 53 126.5 52.9 126.5 53 126.6 53 126.7 53 126.9 53.3 126.8 53.4 127.1 53.4 127.5 53.5 127.8 52.9 128.1 54.4 128.1 54.3 127.9 53.9 127.8 53.7 127.3 53.8 127.1 54.5 126.7 54.7 126.2 55 126.2 55.2 126.6 55.6 126.8 56 126.8 56.4 126.6 56.6 126.6 56.6 126.9 56.3 127 56.2 127.2 56.2 127.2 56.2 127.6 56.5 128 56.8 128.2 57.3 128 57.4 128.1 57.7 128.4 58.2 128.7 58.6 128.8 58.6 129.1 60.6 129.4 59.8 128.8 60.5 128.1 60.6 128 60.6 128 60.6 127.5 61 126.3 61.5 125.7 62.2 125.4 66.7 125.4 67.4 125.2 68.7 124.5 70.7 122.9 71.5 122.7 70.5 121.3"/>
<path class="st0" d="m226.4 61.1-0.6-0.6-0.6-0.4-2.9-0.9h-1l-0.9 0.3-2.1 1.2h-0.6l0.3 0.6 0.5 0.6 2.3 2 1.2 0.7 0.8 0.1 3.4-1.2 0.5-0.5-0.2-0.7 0.2-0.6-0.3-0.6zm-32.3-12.3-0.1-0.3-0.3-0.3-0.3-0.2-0.4-0.1-0.4-0.2-0.2-0.4-0.1-0.5-0.1-0.3-0.6-0.2-1.5-0.2-1.1-0.6-2.7 2.3-1.2 1.8-0.5 1.2-0.2 1.2 0.2 1.3 0.5 0.4h0.8l1 0.3 0.7 0.7v0.6h0.1l0.3-0.1h0.1l0.6 0.5 0.3 0.3 0.2 0.4 0.6-0.3 0.9-0.8 0.4-0.2 0.9-0.1 0.6-0.3 0.3-0.3 0.1-0.2 0.6 0.4h0.3l0.1-0.4-0.1-0.4-0.3-0.5-0.3-1.4 0.1-0.7 0.6-0.2v-0.9l-0.7-0.2-0.3-0.6 0.2-0.5h0.9zm66.2-31.5-0.1-1-0.6-2.3-0.2-1.8-0.2-0.8-0.4-0.7 0.2-0.5-0.1-1.2 0.2-0.6-0.2-0.3v-1l-0.7 1-0.4-0.4-1.6-0.8-2-1.5 0.3-0.6 0.1-0.7-0.6-0.1-0.6-0.3-1.4-0.4-1-0.9-0.6-0.2-0.9 0.1-1.5 0.1-0.8-0.2-0.5-0.4-0.9-1.1-0.3-0.2h-0.5l-0.8 0.8-2 0.1-1 0.3-1 0.8-0.3 0.1h-0.1l-0.2 0.1-0.2 0.3-0.2 0.6v0.7l0.1 0.7 0.2 0.6 0.5 0.5 0.5 0.2 0.5 0.1 0.4 0.2 0.3 0.4 0.2 0.4 0.3 1.2v0.4l-0.1 0.8 0.1 0.3 0.2 0.2 0.6 0.1 0.2 0.2 0.2 0.6v0.6l-0.1 0.5-0.1 0.6-0.4 0.4-0.1 0.3 0.5 1 0.5 0.5 0.1 0.3-0.1 0.4-0.4 0.2-0.2 0.3-0.4 1.2-0.6 1.2-0.4 0.7-0.2 0.1-0.3-0.1-3 0.7-0.5 0.2-0.9 0.7-0.8 0.4h-0.4l-0.5-0.1h-0.5l-0.9 0.5-0.5 0.1-0.7-0.3-1-1.2-0.8-0.3-0.4 0.1-1.3 0.9-1.3 0.1-0.4 0.1-0.4 0.3-0.5 0.5-0.4 0.1-0.3-0.1-0.8-0.4-0.4-0.1-3.2-0.2-0.5 0.2-0.3 0.5-0.2 0.5-0.3 0.4-0.4 0.1h-0.3l-0.3-0.1-1 0.1-6 2-0.8 0.1-0.8-0.1-0.7-0.4-1.5-2.1-0.7-0.6-0.1-0.1-1.3-0.7-0.1-0.2-0.3-0.5-0.1-0.1h-0.2l-0.6 0.1-5.9-2.5-1.1-0.7-0.5-0.1-0.4 0.1-0.8 0.3-1.4 0.1-0.1 0.6 0.1 0.8-0.3 0.7h-0.7l-0.8-0.7-1.2-1.6-0.7-0.6-0.6-0.3-0.7-0.1h-0.8l0.1-0.5h-1.3l-0.5-0.1-0.6-0.5v-0.2l0.1-0.5v-0.2l-0.1-0.2-0.3-0.2-0.1-0.1-0.2-0.3-0.2-0.2-0.1-0.2-0.1-0.4-0.1-1.3-0.5-1.3-0.8-0.7-1 0.4-0.8 0.2-0.7 1-0.5 0.1-0.8-0.1-0.6 0.1-1.2 0.4h-0.3l-1-0.1h-0.3l-0.2 0.1-0.3 0.1-0.3-0.1-0.1-0.3 0.1-0.4v-0.4l-0.7-0.4-0.6-0.6-0.6 0.1-0.7 0.3-0.6 0.4-0.5 0.5-0.1 0.3-0.2 0.8-0.1 0.2h-0.3l-0.1-0.2-0.2-0.3-0.3-0.2-1.1-0.3-1.4-0.1-1.1 0.5 0.1 1.5 0.1 1.1v0.4l-0.2 0.4-0.4 0.2-0.4-0.1-0.8-0.5-0.1 0.3-0.6 0.3-0.6 0.6h-0.5l-1.7-1.2h-0.3l-1 0.9-0.6 0.3-0.7 0.2-0.8 0.1h-0.6l-0.5 0.3-0.8 1.3-0.6 0.1-1.2-0.3h-1.2l-0.7 0.3-1 1v0.1l-0.2 1 0.5 2.1 3 1.5v0.6l-0.4 0.6-0.2 1.3 0.3 0.7 1.7 1.5 2.1 2.6 1.8 1.4 1.9 0.5 1.1 1.1 0.7-0.7 0.7-0.1 0.6 0.1 0.7 0.5 0.8 1.5 1.7 1.5 0.8 0.4-0.3 0.6 0.4 1.4-0.1 0.6-0.4 0.6v0.7l-0.5 0.6-2 1.6-0.8 1.2-1.9 1.6-0.7 0.4-3.1 0.7-0.1 0.3v0.1l0.7 0.2 4 2.2 1.6 0.4 1.5 0.1 1.3-0.3 3.6-2.2 4.6-2.8-0.3-0.1h-0.6v-0.9l-0.1-0.3v-0.2l0.1-0.2 0.8-0.2v-0.4l-0.3-0.4-0.5-0.3 0.5-0.3 1.6-1.3 0.7-1.1 0.9-0.4 1-0.1 0.8 0.3 0.3-0.5 0.8-0.2 0.3-0.3 0.5 0.2 1.8 0.3 0.1 0.7 0.2 0.5 0.4 0.4 0.5 0.3-0.2 0.6 0.5 0.6 0.4 0.7 0.3 0.8h0.2l0.2-0.3 0.8-0.7 1.2 0.7-0.1 0.2-0.2 0.1 0.7 0.3h0.7l1.3-0.6 1.3 0.6 1.1-1 1.1-1.4 1-0.7 0.6-0.2 1.2-0.7 0.5-0.2h0.7l0.6-0.1 0.3-0.4-0.3-0.9 0.5-0.1 0.4-0.3 0.7-0.7v-0.8l0.7-0.2h2.9l0.5 0.2 0.7 0.5-0.4 0.1-0.4 0.2-0.3 0.3-0.1 0.4-0.1 0.6 0.1 0.1 0.3 0.1 0.4 0.3 0.8 0.4 2.8 0.5v0.2h0.3l1.2-1.2 1.5 0.5 1.5 1.1 1.3 0.6h0.6l1.8 0.4 0.6 0.3 0.5 0.5 0.8 0.4 0.8 0.2 0.3 0.1 1.3-0.5 1.5 0.3 1.6 0.6 1.5 0.3 2.5-0.2 0.4 0.1 0.4 0.3 2 0.1 0.6 0.2 0.8-0.4 1.2 0.3 1.1 0.7 0.6 0.7h0.3l-0.1-0.4-0.2-0.2v-0.5h0.3l0.1 0.4 0.1 0.3 0.4-0.2 0.6-0.2 0.5 0.1 0.2 0.5-0.3 0.2-0.6 0.2-0.6 0.1h-0.5v0.3l0.8 0.4 0.2 0.8 0.1 1 0.4 0.7-0.1 0.2 1.4 0.1 1.1-0.5 0.8-1 0.3-1.3 0.6-0.9 1.9-1.7-0.3-0.5v-0.4l0.1-0.2 0.4-0.2h-0.2l-0.1-0.1v-0.2l0.3-0.1 0.1-0.1v-0.7l0.2 0.5v0.2h0.2l0.3-0.3 0.2-0.4 0.3-1h0.2l0.1 0.3 0.2 0.2 0.3 0.1h0.3l0.5-0.1v-0.3l-0.3-0.2-0.1-0.2 0.4-0.4 1-0.5 0.5-0.4 0.4-0.5-0.1-0.2-0.3-0.2-0.4-0.5-0.1-0.4 0.1-0.3 0.3-0.2 0.5-0.1 0.3-0.3 0.3-0.5v-0.6l-0.9-0.5-0.3-0.5-0.5-1.1-0.1-0.7 0.6-1.2-0.3-0.2-0.5-0.2v-0.4l0.7-1-0.4-0.8-0.1-0.8 0.2-0.9 0.4-1-0.6-0.8 0.4-0.4 2.3-0.2 0.6-0.3 0.9-0.9 1-0.6 0.2-0.2 0.2-0.4h0.4l1.8-2 0.4 0.5 0.7 0.4 0.8 0.2 0.7-0.1 0.5-0.5 0.3-0.8 0.2-1-0.1-1z"/>
<path class="st1" d="m170.3 316.4v-0.5l0.2-0.4v-0.3l-1.2-0.3h-0.4l-0.2 0.3-0.3 0.2-0.3 0.1h-0.4v0.3l1.4 1 0.8 0.4 1 0.1v-0.3l-0.3-0.2-0.3-0.4zm77.4-16.3-0.6-2.3 0.5-0.6 0.6-0.5 0.5-0.5 0.3-0.8h-1l0.1 0.2 0.1 0.3 0.1 0.1h-0.5l0.3 0.6-1.2 0.1-0.8 0.7-0.7 1-1 0.9 0.1 0.2 0.2 0.1-0.7 0.5-0.9 0.4-0.9 0.1-0.8-0.4 0.4-0.4-1.4-0.4-0.5-0.4h-0.2l-0.2 0.3h-0.5l-0.3 0.1-0.3 0.2-0.3 0.3-1.1 0.7-0.2 0.1-1.3 0.3-1.2 0.1-0.4 0.1v0.1l-0.4 0.8-0.4 0.3h-0.2-0.3l-0.4 0.3-0.6 1.2-0.4 0.3h-0.8l-0.4-0.1-0.5-0.4-0.6-0.3-0.5 0.1-0.4-0.1-0.1-0.9-0.1-0.5-0.2-0.4-0.1-0.4 0.4-0.4-0.2-0.9 0.3-0.7 0.3-0.5-0.1-0.4 0.3-0.4 0.2-0.1h0.1l0.2 0.1 0.2-0.3-0.2-0.2v-0.1l0.2-0.3-0.3-0.4-0.3-0.1-0.2 0.4v0.8l-0.4-0.2-0.1-0.3v-0.2l0.2-0.4-0.3-0.3 0.8-0.7 0.4-0.5 0.3-0.6h-2.3l-0.5-0.1-0.8-0.4-0.4-0.1-0.8 0.2-5.6 2.1-1 0.1-1-0.2-0.6-0.6-0.5-0.7-0.6-0.6-0.3 0.3-0.2-0.3-0.6 0.3h-0.5l-0.9-0.3-2 0.3h-1.1l-0.3-0.1-0.5-0.5h-0.6l-1 0.2-1.7 0.1-1.1-0.1-0.8-0.5-0.3-1.1 0.1-0.3 0.2-0.4v-0.3l-0.2-0.1-0.6 0.1-0.4-0.5-1.7-0.4v0.4l-0.2 0.2-0.2 0.3-2.2-0.9-1 0.4-0.6 0.3-0.3 0.3-0.7-0.4-3.6-0.6h-0.9l-0.8 0.1-0.8 0.3-2.2 1.2-1 0.3-2.9 0.5-0.8 0.4-1.3-0.3-3.2 0.9-1.3-0.5-0.3-0.2h-0.7l-0.3-0.2-0.1-0.4 0.1-1.6v-0.8l-0.4-2-0.5 0.4-0.6 0.4-0.6 0.3-0.6 0.1-0.6-0.2-1.2-0.8-1.1-0.3-0.7-0.3-0.6-0.4-0.2-0.4 0.5-0.3h0.8l1.4 0.3h0.8l0.4-0.1 0.3-0.2 0.2-0.2 0.3-0.7 0.2-0.1 0.1-0.3-0.7-1.9-0.8-0.5-1.6-0.2-1.2 0.5 0.4 1.6-0.9-0.1-0.4 0.1-0.2 0.4-0.1 0.5-0.2 0.3-0.3 0.2-0.4 0.1h-0.9l-2-0.2-0.6 0.2-1-0.3-3-0.3-0.6-0.4-0.7-1.4-0.1-0.3 0.1-1.1-0.4-1.4v-0.6l0.4-0.5v-0.3l-0.7-0.4-0.4-0.3h-0.3l-0.5 0.5-0.4 0.6-0.2 0.6 0.1 0.6 0.4 0.8-0.4 0.4 0.1 0.7 0.3 0.8 0.2 0.9-0.1 1.1-0.3 0.8-0.6 0.4-0.7 0.1-0.9-0.1-0.3-0.1-0.3-0.2-0.1-0.1v-0.4l-0.3-0.1h-0.3l-0.1-0.1-0.2-0.5-0.2-0.8v-1.8l-0.1-0.9-0.1 0.4-0.7 1.2 0.1 0.5-0.1 0.5-0.5 1.1 0.3 0.3-0.3 0.3v0.3l0.4 0.3v0.3l-0.2 0.4-0.4 1.1v0.3h0.1l0.2 0.2 0.2 0.3 0.1 0.3-0.3 0.7-0.6 1-0.4 1 0.3 0.8-0.2 0.5v0.4l0.4 0.6h-0.2v0.1l-0.1 0.1h-0.5l-0.5 0.3v0.3h0.3l-0.3 0.3 0.5 0.3 0.3 0.3 0.2 0.3 0.3 0.3 0.2 0.1 0.5 0.1 0.3 0.1 0.1 0.3-0.1 0.4 0.2 0.2 0.8 0.2 2.1-0.1 0.5 0.5 1-0.5 2.5 0.1 0.6-0.5 0.3 0.1h0.2l0.2-0.1 0.3-0.2 1.2 0.7 1.5 0.2 3.1-0.1 0.6 0.3 1 1.3 0.7 0.3 1-0.2h0.1l0.1-0.4h0.3l0.6 0.3h2.6l0.6-0.3h0.2v0.1l0.1 0.2 0.3 0.3 2.7 0.4 3.9-0.4v0.2l0.1 0.4 2.2 1.1 0.6-0.3 0.7 0.1 0.6 0.4 0.5 0.4 0.8 1 0.4 0.4 0.3-0.1h0.2l0.5 0.3 0.9 0.2h3.2l0.4 0.1 0.4 0.4 0.2 0.1 0.3 0.2 0.3 0.5 0.2 0.6 0.1 0.4v0.6l-0.2 0.8-0.1 0.5 0.1 1.7-0.1 0.5-0.5 0.4v0.3l8.8-0.3 0.7 0.1 0.6 0.2 0.9-0.4 0.5-0.1h0.6l0.3 0.1 0.4 0.2h0.4l0.3-0.1 0.3-0.4 0.2-0.1 0.8-0.2 2 0.2 0.6-0.1 2-0.8 0.5-0.4 0.3-0.2 0.9-0.1 0.7-0.2 2.4-0.1 3.3 0.4 0.6-0.2 0.6-0.3 2.3-0.7 7.4 0.3 2.6-0.9 1.5-0.3 1.3 0.2 0.3-0.1 0.3-0.3 0.3-0.1 0.3 0.1 0.3 0.3 0.6 0.4h0.8l0.7-0.1 0.9 0.1 0.3 0.2 0.5 0.6 0.1 0.1h1l0.5-0.1 2.1-0.9 0.3-0.2 0.4-0.2 0.4-0.1 0.2-0.2 0.4-1 0.2-0.4 0.4-0.5 0.4-0.7 0.6-1.6-0.3-0.6 0.4-0.7 0.6-0.7 0.3-0.7-0.8 0.5-1.1-0.9zm-19.8 14.3-0.4 0.2-0.7-0.1-0.4-0.1-0.2 0.1-0.1 0.1 0.2 0.2h0.2l0.4 0.1h0.3l0.6-0.2h0.2l0.1-0.1-0.2-0.2zm14.5-2.8h-0.3l-0.2 0.2v0.3l0.2 0.2 0.2 0.1 0.1 0.3 0.3-0.4 0.3-0.1-0.1-0.4-0.5-0.2zm-33.3-21.5 0.1 0.2h0.1l0.1-0.1 0.4 0.2h0.2l0.1 0.2h0.1v-0.4l0.2-0.5-0.9-0.6-0.3 0.1-0.2 0.2v0.1h-0.3l-0.2 0.1-0.4 0.4 0.1 0.1h0.9z"/>
<path class="st1" d="m169.9 37.1 0.3-0.6-0.8-0.4-1.7-1.5-0.8-1.5-0.7-0.5-0.6-0.1-0.7 0.1-0.7 0.7-1.1-1.1-1.9-0.5-1.8-1.4-2.1-2.6-1.7-1.5-0.3-0.7 0.2-1.3 0.4-0.6v-0.6l-3-1.5-0.5-2.1 0.2-1v-0.1l-0.4 0.3h-1.2l-2.4-1.2-3.6-0.1-0.7 0.2-1.1 0.8-0.6 0.4-0.8 0.1-0.4-0.4-0.3-0.5-0.7-0.5h-0.6l-0.8 0.4-0.8 0.5-0.5 0.5-0.1 0.4v0.8l-0.2 0.5-0.3 0.3-0.4 0.2-0.8 0.2-1.5 0.2-7.1-1.1-3.3-0.3-1 0.2-0.6 0.1-0.7 0.6-0.4 0.4-0.3 1.3v0.2l-0.2 3.8-0.3 1.8-0.4 1-0.4 0.3-0.5-0.2-0.6-0.6-0.3-0.4-0.2-0.4-0.2-0.2-0.4-0.1-0.5 0.1-0.1 0.3v0.4l-0.1 0.4-0.6 0.8-0.6 0.5h-0.1l-0.6 0.2h-0.9l-1.2-0.2h-0.6l-0.7 0.2-0.5 0.1-0.6 0.1h-1.1l-0.4-0.2-0.8-0.5h-0.1-0.4l-0.9 0.2h-0.7l-0.3 0.2h-0.2l-0.1-0.2v-0.6l-0.1-0.2-0.3-0.1-1.1-0.1-1.4-0.4-0.5-0.1h-0.3l-0.8 0.1-0.8 0.4-1.3 1.2-0.8 0.1-0.3-0.1-1.2-0.6-0.1-0.1-0.2-0.4-0.2-0.2-0.2 0.1-0.4 0.4-0.2 0.1-2.2 0.7-1.1 0.5-0.3 0.2-0.6 0.5-0.3 0.3-0.1 0.5v1l-0.1 0.4-0.5 0.7-1.3 1.3-0.5 0.9-1.3 1-0.3 0.5-0.1 0.4v0.4l-0.1 0.5-0.5 0.5-0.3 0.1 0.2 1.7 1.2 0.6 0.6 0.6-0.1 0.6-0.6 0.5-0.7 0.3-1.4 0.3-1.3-0.1-0.2 0.6 0.6 0.6 0.6 2.2 0.4 0.7 1.2 0.5v0.7l-0.9 2.1 0.6 0.2h0.7l1.5 0.5h0.7l0.6 0.4h0.7l-1 1.9v1.3l1 1.3-0.5 1.2v0.7l0.6 0.5 0.9 1.4 0.6 0.6 1.3 0.6 1.2 0.8v0.7l0.6 0.3 2-0.3 0.3 0.7-0.1 0.6 0.2 0.7 1.2 1.3 0.2 1.3 0.4 0.7 1.7 0.8-0.6 1.1-0.1 1.4-0.5 0.6-1.6 0.7-0.3 0.7 0.1 0.9 0.3 0.7 0.4-0.6 0.7-0.4 1.9 0.4-0.1 0.6-0.4 0.6 0.1 0.7-0.1 0.8 0.3 0.7 0.6 0.2 0.8-0.6 0.7-1.2 0.6-0.5 1.5-0.6 1.2 0.7 0.3 0.7-0.1 2 0.4 1.4 1.1 1.2 2.4 1.6 0.8 1.4 1.1 1.1 1.3 0.5 2.9-0.8 0.6 0.1 0.6 0.5 1.9-0.3 0.4-0.1v-1l-0.1-0.2h-0.3l-0.1-0.2-0.2-0.2-0.8-0.3-0.2-0.2-0.3-0.2-1.9-1.6-0.4-1.3-0.2-0.2-0.4-0.2-0.1-0.5 0.2-1.1-0.2-1.1-0.4-0.8-0.3-0.7 0.1-1.1 1.4-3v-0.5l1.1-3.2 1-1.7 0.3-1.1-0.1-0.5-0.7-0.2-0.4-0.5-0.3-0.5-0.5-0.3 0.1-0.7-0.2-0.7-0.4-0.7-0.5-0.5 0.4-0.4 0.4-0.2h0.9l0.5 0.3 0.3 0.1 0.2-0.3v-0.5l0.1-0.3 0.2-0.1h0.3l-0.7-0.4 0.1-0.6 0.6-0.5h0.6v0.5l0.4 0.2 0.4 0.3h0.2l0.2-0.6h0.3v0.4h0.2v-0.7l0.3 0.3h0.2l-0.3-0.8 0.1-0.7 0.5-0.6 0.7-0.5 0.3 0.2 0.3 0.1h0.7v-0.1l0.3-0.2 0.6-0.3 0.4-0.4 0.3-0.6 0.1-0.7-0.3-0.9 1-0.4 1 0.1 0.8 0.7 0.6 1.2-0.2 0.5-0.1 0.3 0.1 0.1 0.2 0.1 0.9 0.6 0.2 0.8-0.3 0.5-0.4 0.3-0.2 0.4-0.5 0.4-1.2 0.2-2.3 0.1-0.8 0.3 0.3 0.8 1.3 1.5v0.2h-0.3l1 1.4 0.3 0.8-0.3 0.7 1.4-0.1 0.6 0.1 0.7 0.3 1.8 1.4 0.7 1.2 0.8 0.3 0.8 0.2 0.4 0.3h0.4l1.9 1.4 0.6-0.2 0.6 0.3 0.6 0.4 1.3 0.3 0.8 0.3 1.4 0.8 0.7 1.2 0.2 1.7-0.2 1.8-0.5 1.5 0.4 0.7 0.7 0.7 0.6 0.8 0.3 1.1 0.1 0.3 0.5 0.7 0.1 0.4-0.1 0.5-0.5 0.9-0.2 0.5 0.4-0.2 2.7-0.4 0.9 0.1 5.2 2.3 3.1 0.5 0.7-0.2 0.7-0.3 0.3-0.3-0.5-0.2-0.7-0.1-0.6-0.2-0.4-0.4-0.3-0.6-0.1-0.5v-0.5l-0.1-0.3-2.4-0.6-3.7-2-1-1.2-2-2.8-0.3-0.6-0.2-0.2-0.3-0.1-0.7-0.1-0.3-0.1-0.1-0.3-0.2-0.9-0.4-0.8-0.3-0.8 0.1-0.9 0.9-1.6 1.2-0.8 1.4-0.1 1.6 0.4 2 1.2 3 0.2 0.7 0.2 1.2 0.8 3.2 4.3 0.1 0.3 0.1 0.4 0.2 0.4 0.4 0.2 0.2 0.2-0.1 0.5-0.2 0.8 0.2 0.5 1.3 2.2-0.1-0.4v-0.2l0.3-0.2 0.5 0.1 0.4 0.3 0.2 0.5 0.2 0.1 1.3 0.7-0.2 0.5 0.1 0.3 0.3 0.1 0.3-0.2h0.3v0.3l-0.1 0.5 0.7 0.2h1.8v-0.4h-0.7l-0.1-0.3 0.3-0.3h0.7v-0.3l-0.4-0.4 0.2-0.4 0.9-0.8-0.2-0.2-0.1-0.2v-0.8l-0.3 0.2h-0.3l-0.2-0.2-0.1-0.5 0.1-0.2h0.3l0.3-0.1 0.1-0.4-0.1-0.4-0.6-0.5-0.2-0.3v-0.4l0.5-0.4v-0.4l-0.4-0.6-1.4-0.5-0.5-0.4-0.5-0.5-0.6-0.5-0.6-0.2-0.4 0.2-2.4-1.2-0.2 0.1-0.5-0.3-0.5-0.6-0.2-0.8-1.2-0.8-0.3-0.3-0.2-0.3-0.6-1.5v-0.8l0.2-0.8 0.6-0.9h0.1l0.3-0.4 0.1-0.3 1.1 0.5 0.8-0.2 1.8-0.9h0.5l1.3 0.3 1.3-0.2 0.5 0.2 0.8 0.6 1.3 1.3 0.3 0.2 0.1-0.4v-2.6l-0.1-0.1h-0.3l-1 0.2-0.4 0.2-0.4-0.2-1.3-0.3-0.2-0.2-1.1-0.6-0.4-0.3-1.5-2.3-0.3-1.3 0.1-0.9 0.5-0.6 2.5-0.3 0.3-0.2v-0.4l-0.7-0.7-0.3-0.5-0.4 0.2h-1.1l-0.5-0.2-1.2-1.1-0.2-0.1-0.2-0.9-0.5-1-0.6-0.8-0.5-0.3-0.8-0.3-0.6-0.7-0.3-1 0.2-1.2 0.5-0.8 0.8-0.7 0.8-0.5 2-0.8 1.2-0.1 0.4 0.1v-0.1l0.1-0.3 3.1-0.7 0.7-0.4 1.9-1.6 0.8-1.2 2-1.6 0.5-0.6v-0.7l0.4-0.6 0.1-0.6-0.5-0.3zm-6.7 31.3-0.1-0.1-0.1-0.5-0.2-0.3-0.2-0.1-0.6 0.3-0.2 0.3 0.1 0.2 0.6 0.3h0.1l0.1 0.1 0.1 0.2 0.7 0.3h0.2v-0.2l-0.3-0.2-0.2-0.3z"/>
<path class="st1" d="m190.4 139-0.1-0.2-0.2-0.2-0.5-0.8-0.7-0.7-1.5-1-0.6-0.3-0.2-0.2-0.2-0.5-0.1-0.6 0.1-1.1-0.1-0.4-0.5-0.5-2.5-1.7-0.7 0.2-0.4 0.4-0.1 0.6v0.7l0.2 0.8v0.5l-0.3 0.2-0.3 0.1-0.3 0.3-0.1 0.4v0.5l0.3-0.3h0.3l0.3 0.2 0.3 0.4 0.1-0.2 0.1-0.1 0.2 0.7 0.8 0.4v0.4l0.4-0.2 0.4-0.1 0.3 0.2 0.1 0.5h0.2l0.4-0.4 0.3 0.3 0.4 1.3-1.5 0.6 1.2 1.5 0.1-0.7 0.4-0.4 0.5-0.2h0.2l0.1 0.5 0.3 0.4 0.4 0.2 0.4-0.3h0.3l0.3 0.3h0.3l0.4-0.6 0.2-0.1h0.3v-0.4l0.3-0.4zm-3.8 31.6 0.3-2.3-3.3 0.6-0.7 0.4-0.6-0.2-1.5-0.1-1-0.8h-0.5l-1.2 0.2-0.3-0.2-0.2-0.8-0.1-0.3-1.2-0.6-1-0.7-0.5-0.5-0.3-0.6 0.1-0.2 0.4-0.6-0.2-0.3v-1.2l-0.1-0.1-0.2-0.1-0.2-0.2-0.1-0.4-0.8-1.1-0.1-0.6v-0.7l-0.1-0.5-0.8-1-0.1-0.4 0.7-0.2v-0.3l-0.7-1 0.1-1.6 0.7-1.5 0.9-0.7-0.6-0.8-3.2-2.7-0.2-0.4v-1.1l0.2-0.5 0.3-0.4 0.4-0.3 0.4-0.1-0.7-0.4-2.3-0.8h-0.8l-0.8 0.1h-0.7l-0.8-0.4-0.6 0.7h-0.6l-0.7-0.3-0.8-0.2-1.7-0.1-1.6-0.5-1.4-0.7-0.7-0.5-0.3-0.6-0.2-0.8-0.6-0.6-0.7-0.1-0.7 0.5-0.4-0.3-0.4 0.3-0.5-0.3-1-0.2-0.4-0.5-0.3 0.2h-0.2l-0.1-0.2 0.1-0.4v-0.3l-0.9-0.2-1.5-1.3-1.6-0.7-0.6-0.8-0.4-0.9v-0.5l-0.3-0.6-0.6-2.1v-0.2l-0.8-0.2-0.7-0.4-0.4-0.7 0.3-0.9-0.4-0.4-0.5-0.4-0.5-0.2-0.5-0.1-0.2-0.1-0.5-0.6-0.4-0.2-0.9 0.2-1.9 1.1-0.8 0.3h-2.2l-0.4 0.1-0.7 0.6-0.5 0.2 0.1 0.3v0.4l-0.1 0.4-0.3 0.4-0.3 0.2h-0.7l-0.4 0.1-0.1 0.2-0.2 0.6-0.1 0.1-0.9 0.3-1 0.6-1.1 0.3-1.6 0.9-0.8 0.2-0.3 0.1-0.8 0.6-0.3 0.1-0.2 0.2-0.1 0.4v1l0.8-0.5 3.9-0.4 0.6-0.2 0.3-0.3v-0.3l-0.3-0.4-0.5-0.2h-0.5v-0.4l0.5-0.2 0.5 0.1 0.6 0.2 0.6 0.1h0.5l0.3 0.1 0.7 0.9 0.5 0.4h0.5l1.1-0.2h1.1l0.9 0.3 1.2 0.7 3.5 2.6 0.8 0.4 0.2 0.2 0.3 0.9 0.2 0.2 0.4 0.1 1 1.1 0.9 0.4 1.1 0.7 0.3 0.3 0.1 0.3 0.1 0.5 0.3 0.2 0.3 0.1 0.1 0.1 0.1 0.2 0.8 0.7 0.1 0.4v0.8l0.1 0.4 0.5 0.4 0.8 0.3 1.6 0.3 0.6 0.3 0.5 0.6 0.8 1.3v0.3h-0.3v0.3l0.3 0.6-0.5 0.7-0.7 0.8-0.4 0.7h0.3l0.2-0.1 0.1-0.1 0.1-0.2 0.9 2.1 0.4 0.4 0.5 0.1 1.1-0.3 0.5-0.1 2.5 0.6h0.5l1.1-0.3 0.7-0.1 0.5 0.1 1.2 0.4 0.7 0.1 2.4-0.3 2.1 0.2 0.1-0.3 0.2 0.3 0.4 0.8v0.4l0.1 0.4 0.3 0.4-0.3 0.4-0.4 0.2-0.9 0.3h1l0.9 0.2 0.8 0.3 0.7 0.4-0.7 1.6h0.5v0.3l-0.1 0.1-0.1 0.2v0.2l0.3 0.1 0.3-0.1 0.1-0.2v-0.2l0.7-0.7h0.3l0.3 0.6-0.5 0.5-0.6 1-0.2 0.8 0.8 0.2-0.2-0.6 0.5-0.1 0.6 0.1 0.4 0.4 0.3 1.2 0.5 0.6 0.1 0.6-0.2 0.4-0.7 0.7-0.1 0.3 0.1 0.4 0.6-0.1 0.3 0.3v1.2h-0.2v0.3l0.3-0.3 0.2-0.1 0.5 0.3 0.6-0.3 0.7 0.1 0.6 0.4 0.2 0.7 0.5-0.1 0.3 0.3 0.4 1-0.5 0.3v0.2l0.2 0.3 0.5 1 0.2 0.3 0.7 0.7 0.5 0.4 0.5 0.1 0.5-0.5v-0.3l-0.6-0.4 0.6-0.7 1-0.4 0.5 0.4h0.1l0.8 1.4 0.1 0.6 0.1 0.3 0.4 0.1 0.8-0.1 0.8-0.3 0.7-0.4 0.5-0.4 0.3-0.8 0.4-2 0.3-0.6-0.5-1 0.1-0.6zm-31.1-10.4-1.3-0.9-1.7-2.6-1.1-0.6v-0.3l0.2-0.4-0.1-0.3-0.4-0.2-0.4-0.1v-0.3l0.3-0.1 0.7-0.5-1.2-1.2-0.9-0.5-0.4 0.6-0.4 0.3-3.6-0.6-2.4 0.1-0.6-0.1-0.2-0.2 0.1-0.3 0.3-0.3 0.4-0.1h0.8l0.3-0.1v-0.3l-0.5-0.2-1-0.2-0.4-0.3-0.4-0.4-0.4-0.3h-0.4l-0.4 0.5 0.3-1 0.5-0.4 0.5-0.3 0.4-0.5 0.1-0.6-0.2-0.6-0.4-0.6-0.5-0.4-0.7-0.3-1.2-0.2-0.6-0.2-1.2-0.8-0.6-0.1-0.7 0.3 0.3 0.1 0.7 0.5-0.5 0.6-0.5 0.1h-0.4l-0.4 0.2-0.4 0.4-0.4 0.1-0.7-0.1-0.5-0.5-1.1-3.6-0.6-0.9-0.9-0.4h-2l-0.5-0.1-0.7-0.6-0.4-0.2h-0.6l-0.4 0.2-0.7 0.7-0.3-0.6-0.5-0.5-0.6-0.4-0.5-0.1-0.4 0.1-0.7 0.3h-0.3l-0.3-0.1-0.4-0.4-0.4-0.2-0.8-0.9-0.9-1.4h-0.3l-1.8 0.9-0.3-0.2-0.4 0.1-0.5 0.1h-0.5l0.3-0.6h-0.3l-0.4 0.6-0.7-0.2-0.3-0.6 0.7-0.5v-0.5l-1.7 0.3v-1.3l0.3 0.2 0.1 0.1 0.2-0.3 0.2-0.2 0.3-0.1h0.4l0.4-0.1 0.3-0.2 0.2-0.2 0.7-0.5 0.3-0.1 1.3 0.9 0.1 0.1 0.2 0.1 0.6 0.4 0.3 0.1 0.7-0.4 0.4-0.1 0.2 0.4 0.3 0.4 0.8-0.1 0.8-0.2h0.5l0.2-0.4 0.3-0.2h0.9l0.3-0.2 0.2-1.1 0.2-0.3 0.5-0.1 0.5 0.1 0.5 0.2 0.4 0.1 0.3-0.1 0.7-0.4 0.5-0.1-0.1-0.2-0.2-0.5h0.3l0.2-0.1 0.2-0.2h0.3l0.5 0.1 0.2-0.1 0.3-0.2 0.2-0.2h-0.1l-0.2-0.1-0.8-0.3-1.4 0.6-2.1 0.1-1.1-1.1-0.6-0.2-1.3 0.1-1.9-0.6h-0.6l-2.3-1.5-0.7-0.3-2.7 0.3-1.4-0.1-0.6-0.4-0.3-0.7-0.2-2 0.2-1.1-2.3 0.2-0.6-0.5-0.3-2.1-0.6-0.5-1.3-0.8-2.5-0.9-1.7-1-3.2 3.7-1.1 2.5-0.8 0.6-1.3 0.3-0.7 0.4-1 1.1-1.5 0.8-1.3 0.3-0.6-0.1-0.1-0.7 0.2-0.6-0.2-1.3-0.5-0.7-1.2-0.4-1.2-1h-0.7l-2 1.4-0.7 0.3-0.6-0.1-0.6-0.5-0.3-0.7 0.3-1.2-0.3-0.7-1.2-0.7-0.2-1.9-0.3-0.7-0.6-0.5-3.1 0.8-0.7 0.5-0.2 0.6-0.6 0.5-1.1-1-0.7 0.2-1.3 0.9-1.7 1.8-0.5-0.2v1.5l0.9 1.3 0.3 0.7-0.2 0.6v0.6l-0.9 1.8 0.1 0.6 3.6 2.2 0.3 0.8-0.2 1.2 0.1 0.6 0.6 0.5 0.6 0.1 0.6 0.5 2 0.4 1.2 0.6v0.6l-2.1 1.1-0.6 0.5-0.2 0.7v0.6l0.5 1.3 0.5 0.6 1.9 1.3 1.2 0.6 1.3 0.1 2-0.3 0.4 0.7-0.1 0.6 0.7-0.1 1.3-1v-1.3l0.2-0.6 1.9 0.2 1.4-0.7 0.6-0.5 1.5-0.6 0.1 0.4 1.4 0.8v0.6l-0.6 1.2 0.2 1.3-0.5 1.2 0.2 1.4-0.5 0.6v0.6l1.1 1.2-0.6 1.3 0.1 1.4-0.3 0.6-0.7 0.4-1.3 0.3-1.5 1.3-0.7 1.4 0.1 0.9-0.3 0.8 0.2 0.3 0.3 0.1h0.5l0.3-0.1 1.4-1.1 1-0.4h1.1l0.8 0.9 0.7-0.3h1l1.8 0.8 1.1 0.4 0.5 0.4-0.1 0.5 0.2 0.1 0.3-0.1 0.3 0.1 0.2 0.4 0.2 0.6 0.3 0.3 0.2-0.8 0.5-0.6 0.6-0.3 0.4 0.1h0.3l0.3-0.1 0.5 0.1 0.5 0.2 0.2 0.3 1.3-0.2 0.9 0.2 0.7 0.3h0.5l0.2-0.4-0.2-0.3 0.3-0.2 0.2-0.3 0.1-0.4-0.1-0.4-0.2 0.2h-0.2l-0.2-0.2-0.3-0.4 0.3-0.3 1-0.8v-0.4l-0.2-0.8v-0.5l1.7 1 0.4 0.1 0.2 0.1 0.2 0.2 0.3 0.7 1.7 2.1 0.5 1-0.4 0.1-0.1 0.1 0.1 0.1 0.1 0.3h0.1l0.4 0.8v0.1l0.6 0.4 0.5 0.2 0.4-0.1 0.4-0.4v-0.3l-0.1-0.1v-0.1l0.3-0.2v-0.3l-0.3-0.1-0.2-0.2-0.2-0.1v-0.3l0.2-0.3 0.3-0.5 0.4-0.4 0.4 0.1 0.5 0.2 0.3-0.3v-0.4l-0.7-0.1 0.7-0.8 0.8 0.4 0.5 0.9-0.3 0.8 0.6 1 0.2 0.2 0.2 0.1 0.6 0.2 0.8 0.6 1.3 0.4 0.7 0.3-0.3 0.5-0.7 0.6-0.3 0.5 1.5 1 0.5-0.3 1.3-0.2 0.7-0.2 0.3 0.6 0.3-0.6h0.2l0.5 2.2 0.5-0.2 1.1 0.2h0.6l-0.2-0.5-0.4-0.3h-0.5l-0.5 0.2 0.4-0.7 0.6-0.1 2.1 0.2 0.5 0.1 0.5 0.4 0.5 0.7h-0.7v0.3l1.2 0.1 0.4-0.1 1.1-1.1 0.5 0.1 0.9 1-0.7 0.6 0.6 0.2 2.5 0.3 0.2-0.1-0.1-0.3-1.6-0.5h2l1.2 0.2 0.5-0.5 0.3-2.1 0.5-0.5 0.7-0.4 1.3-0.4 0.6 0.4 0.4 0.8-0.4 0.6-0.1 0.6 0.5 0.5 0.6 0.1 0.7-0.1 0.6 0.4 1.4 2 0.6 0.4 1.2 0.2 0.5 0.5 0.6 0.1 1.3-0.9 1-1.1 0.3-4.3 0.7-1.2 1.2-1.1 2-0.6 1-0.4 0.1-0.3-1.5 0.3-0.3 0.4zm19.8 14.5-0.3-0.1-0.4 0.3-0.5 1.1v0.3l0.4 0.2 0.5-0.2 0.4 0.1 0.5-0.3 0.2-0.6-0.3-0.5-0.5-0.3zm3.4-37 0.3-0.2 0.1-0.1 0.1 0.1v-0.3l-0.1-0.1-0.3-0.1-0.2-0.2h-0.1l-0.1 0.1-0.2 0.3-0.1 0.3 0.6 0.2z"/>
<path class="st1" d="m141.4 270.6-0.7-0.3-0.6-0.5v-0.3h-0.2l0.3 1 0.2 0.5 0.3 0.5 0.9 0.9 0.2 0.4h0.3l-0.1-1.6-0.6-0.6zm-8.5-17.4-2.3-1.7-0.6-0.7-1.4-2.6-0.4-0.3-0.4 0.4-1.1 1.9-0.1 0.4 0.1 0.4 0.2 0.5 0.3 1v1l-0.3 2.5 0.2 0.2 0.3 0.7 0.2 0.3h0.6l0.1 0.1v0.5l1 0.3 0.4 0.3 0.1 0.6 0.4-0.4 0.4-0.1 0.6 0.2 0.5 0.1 0.2-0.1 0.1-2.6 0.1-0.6 0.3-0.4 0.6-0.3h0.5l0.2-0.2-0.3-0.8-0.5-0.6zm28.9-25.5h-0.3v0.3l0.3 0.2 0.2-0.1-0.2-0.4zm-15.2-3.5-0.1-0.3-0.2-0.1 0.1 0.3v0.2l0.1 0.1v0.1l0.1 0.3 0.2 0.1 0.1-0.1-0.1-0.5-0.2-0.1zm-10.8-15.7-0.3-0.2-0.6-0.3-0.2-0.2h-0.4l-0.3 0.1-0.3 0.2-0.3 0.3 0.5 0.5 0.4 0.5 0.4 0.4 0.8 0.2 0.4-0.2 0.1-0.4-0.1-0.5-0.1-0.4zm13.4-4.2h-1.6l-0.9 0.3-3.2 2.1v0.3h0.8l2-0.6h0.8l0.8-0.1 0.4-0.4-0.1-0.9 0.6 0.1 0.9-0.1 0.8-0.4 0.6-0.6h-1.1l-0.8 0.3zm-1.8-8.7h-0.2l-0.1 0.7-0.4 0.3-1 0.3v0.3l0.7 0.4 0.9 0.1 0.9-0.1 0.7-0.4v-0.2h-0.5l-0.4-0.2-0.3-0.3-0.3-0.4v-0.3-0.2zm-1.9 4.7 0.4 0.6v1.1h0.2l2.1-0.7 0.8-0.4v-0.3l-0.3-0.3 0.3-0.3-1.7-1.4-0.7-0.3-0.8-0.5-0.9-0.2-0.3-0.1h-0.2v-0.3h0.3l0.7-0.3v-0.3l-0.5-0.1-0.4-0.2-0.4-0.3-0.4-0.4 0.6-0.7 0.5-1.3 0.2-1.2-0.4-0.5-1.8 0.1-0.7 0.3-0.6 0.5v0.3l1 0.5 0.7 1.2v1.2l-0.9 0.6-0.5-0.1-0.4-0.2-0.7-0.6-0.3-0.1h-0.4l-0.2-0.1-1.3-1.3-0.3 0.3-1.4-1.2h-0.1v0.2l-0.8 1.9-0.2 1.2 0.3 0.7 0.5 0.6 1.8 0.6 1.1 0.8 0.6 0.1 1.1 1.1 0.6-0.1 1.8 0.4 0.7-0.4 1.3-0.1zm4.8-14.2-0.6-0.3-4.3 0.3v0.3l0.1 0.6 0.3 0.6 0.4 0.3 0.5 0.2 0.3 0.4v0.4l-0.4 0.3v0.3l0.5 0.2 0.2 0.1 0.3 0.3 0.4-0.2 0.8-0.2 0.3-0.2 0.2-0.5v-0.5l0.1-0.5 0.5-0.4v-0.5l0.4-0.6v-0.4zm-2.9-7.9-0.5 0.4-1-0.4-0.6 0.3-0.5 0.5-0.3 0.4v0.3l0.2 0.3 0.5 0.3 1.1 0.3 0.5 0.1 0.5-0.3 0.4-0.5 0.3-0.3 0.4 0.3h0.2l0.1-0.7 0.8-0.7-0.1-0.5 1.2-0.6h-1v-0.2l0.1-0.1-0.2-0.2-0.2-0.3-0.1-0.3v-0.2l0.2-0.4-0.2-0.3-0.4-0.2-0.8-0.1h-0.3l-0.3 0.1-0.3 0.2 0.2 0.2-0.1 0.1-0.1 0.3-0.3-0.2-0.4-0.1h-0.8l0.5 0.4 0.5 0.3-1.3 0.6h0.4l0.7 0.3 0.3 0.1 0.3-0.1 0.3-0.3 0.3-0.2h0.4l-0.2 0.5-0.4 0.9zm21.3 5.9-0.9-0.5 0.1-0.3 0.1-0.2 0.1-0.1 0.2-0.1-0.2-0.2-0.1-0.3 0.1-0.3 0.2-0.4-0.5-0.2h-0.2l0.2-0.3h-0.5l-0.4-0.2-0.3-0.2-0.3-0.3 1.1-0.4 0.1-0.2-0.1-0.5-0.3-0.3-0.4-0.1h-0.4l0.1-0.6v-0.5l-0.1-0.4v-0.5l0.2-0.5 0.5-1 0.1-0.4-0.2-0.4-0.3-0.5-0.3-0.6-0.1-0.8-0.5-1.9v-0.9l1.8-1 0.6-0.1 0.2 0.6 0.1-0.6 0.1-0.5 0.2-0.4 0.4-0.1-0.4-0.4-0.1-0.3 0.1-0.3 0.1-0.4-0.1-0.4-0.7-0.3-0.1-0.3-0.3-0.3-1.7-1.4-0.9-1.1-0.6-0.5-0.6-0.2-0.7-0.1-3.4-1.5-0.4-0.1-0.8-0.5-0.5 0.1-0.1 0.3-1 0.4-2 0.6-1.2 1.1-0.7 1.2-0.3 4.3-1 1.1-1.3 0.9-0.6-0.1-0.5-0.5-1.2-0.2-0.6-0.4-1.4-2-0.6-0.4-0.7 0.1-0.6-0.1-0.5-0.5 0.1-0.6 0.4-0.6-0.4-0.8-0.6-0.4-1.3 0.4-0.7 0.4-0.5 0.5-0.3 2.1-0.5 0.5-1.2-0.2h-2l1.6 0.5 0.1 0.3h-0.2 0.4v0.3l-1.2 0.3h-0.4v0.6l0.7 0.2 0.6 0.5 0.2 0.6-0.4 0.3-1.1 0.4-0.6 0.7-2.6 0.8-0.9 0.1 1.2 1.6 1.1 2.1 0.5 1.3 0.1 0.3v0.2l1.1-0.8 1.4-0.7 3.7-0.3 2.8 0.3 0.7-0.3-1.2-0.3 0.6-0.3 1.4-1.2 0.4-0.2 0.4-0.1 0.9-0.1 0.2-0.1 0.4-0.4 0.4-0.1h1.4l0.3-0.1 0.2-0.1h0.2l0.3 0.3 0.3 0.8-0.3 0.7-1.4 1.4 0.3 0.4 0.4 0.2 0.4 0.1h0.5l0.4 0.2 0.3 0.4 0.3 0.3 0.6-0.2v0.3l-0.1 0.1-0.3 0.2v0.3l0.6-0.2 0.6-0.3 0.6-0.1 0.6 0.3 0.1 0.6 1.5 2.2 0.1 0.9 0.8 0.9 0.2 0.5-0.2 0.6h0.3l0.1 0.1v0.2l0.1 0.3 0.3-0.4 0.4 0.2h0.4l0.2-1h0.2l0.1 0.3 0.2 0.2 0.2 0.1 0.5-0.1 0.6 0.5 0.6 0.8 0.3 0.8 0.4-0.2 0.1-0.1 0.4 1.9 0.3 0.8 0.5-0.3h0.3v1.7l0.2 0.6 0.6 0.2 0.6 0.1 1.4 0.6 0.4 0.3 0.5-0.6 0.6-0.6 0.3-0.5-0.5-0.4 0.2-0.3v-0.4h-0.5v-0.3h0.5v-0.7l-0.5-0.3 0.8-0.9 0.1-0.5v-1l-0.1-0.8-0.1-0.4zm-5 15.3-0.1-0.3-0.5-0.4-0.4-0.1-0.4-0.2v0.2l0.7 0.4 0.4 0.6 0.3 0.2 0.2 0.1h0.1l-0.1-0.2-0.2-0.3zm0.4-8.3h-0.4l-0.1 0.5 0.2 0.2h0.7v-0.4l-0.2-0.2-0.2-0.1zm7.2-3.7-0.2-0.6h-0.2l-0.4 0.4-1 3.8v0.4l0.1 0.2 0.1-0.1v-0.2l0.1-0.1 0.1-0.4 0.1-0.2 0.3-0.8v-0.1l0.2-0.4 0.2-0.8 0.3-0.2 0.1-0.2v-0.1l0.1-0.4 0.1-0.2zm-14.1-1.6v0.3h-0.2l0.1 0.2 0.1 0.1h0.2l0.1-0.3-0.1-0.3h-0.2z"/>
</g>
</g>
</g>
</svg>